<svg xmlns="http://www.w3.org/2000/svg" viewBox="0 0 682 396.28">
    <defs>
        <style>
            .cls-1 {
                fill: none;
                stroke: #e2d5bc;
                stroke-miterlimit: 10;
                stroke-width: 4px;
            }

            .cls-2 {
                fill: #e2d5bc;
            }
        </style>
    </defs>
    <g id="Layer_2" data-name="Layer 2">
        <g id="Layer_2-2" data-name="Layer 2">
            <path class="cls-1"
                d="M680,396.28V43.91A41.91,41.91,0,0,0,638.09,2H43.91A41.91,41.91,0,0,0,2,43.91V396.28" />
            <path class="cls-2" d="M4,19.29V4H19.29a46.84,46.84,0,0,1,8.13-4H0V27.42A46.84,46.84,0,0,1,4,19.29Z" />
            <path class="cls-2"
                d="M13,9.37c-2.84-.16-3.68-1.13-4-4-.15,2.89-1,3.81-4,4,2.9.11,3.81,1.1,4,4C9.34,10.6,10.2,9.69,13,9.37Z" />
            <path class="cls-2"
                d="M678,19.29V4H662.71a46.84,46.84,0,0,0-8.13-4H682V27.42A46.84,46.84,0,0,0,678,19.29Z" />
            <path class="cls-2"
                d="M673,13.37c.19-2.9,1.1-3.89,4-4-3-.19-3.85-1.11-4-4-.32,2.87-1.16,3.84-4,4C671.8,9.69,672.66,10.6,673,13.37Z" />
        </g>
    </g>
</svg>