<?xml version="1.0" encoding="utf-8"?><svg version="1.1" id="Geo" xmlns="http://www.w3.org/2000/svg" xmlns:xlink="http://www.w3.org/1999/xlink" x="0px" y="0px" viewBox="0 0 314.1 314.1" style="enable-background:new 0 0 314.1 314.1;" xml:space="preserve"><style type="text/css">.st0{fill:url(#SVGID_1_)}.st1{fill:url(#SVGID_00000121259478673411486340000012410747939213174198_)}.st2{fill:none}</style><g id="Livello"><linearGradient id="SVGID_1_" gradientUnits="userSpaceOnUse" x1="175.175" y1="29.73" x2="175.175" y2="189.64"><stop offset="0" style="stop-color:#E8D29B"/><stop offset="1" style="stop-color:#93666D"/></linearGradient><path class="st0" d="M249.6,189.6l2.1-1.6c10.3-8.2,18.4-18.9,23.3-31.1l0,0c0,0-59.1-88.4-117.9-127.2c0,0-65.9,52.2-81.6,80c0,0,10.8,39,19.8,49.8c0,0,47.6-45.5,61.8-50.2c0,0,18.3,13.3,26.6,36.4l-28.7,27.2l8.6,11.6l43.2-36.9c0,0-21.8-42.6-49.7-66l-55,46.6c0,0,12.5-44,55-86.1C157,42,232.1,127.4,249.6,189.6z"/><linearGradient id="SVGID_00000161621382039201987620000005443475646665107871_" gradientUnits="userSpaceOnUse" x1="138.89" y1="124.44" x2="138.89" y2="284.36"><stop offset="0" style="stop-color:#E8D29B"/><stop offset="1" style="stop-color:#93666D"/></linearGradient><path style="fill:url(#SVGID_00000161621382039201987620000005443475646665107871_);" d="M64.5,124.4l-2.1,1.6c-10.3,8.2-18.4,18.9-23.3,31.1l0,0c0,0,59.1,88.4,117.9,127.2c0,0,65.9-52.2,81.6-80c0,0-10.8-39-19.8-49.8c0,0-47.7,45.1-61.8,49.8c0,0-18.3-12.9-26.5-36l28.7-27.2l-8.6-11.6l-43.2,36.9c0,0,21.8,42.5,49.7,66l55.1-46.5c0,0-12.5,44-55.1,86.1C157.1,272.1,82,186.7,64.5,124.4z"/><rect class="st2" width="314.1" height="314.1"/></g></svg>