<?xml version="1.0" encoding="UTF-8"?><svg xmlns="http://www.w3.org/2000/svg" viewBox="0 0 990 1600"><g id="a"/><g id="b"><g id="c"><g><path d="M606.7,612.23c-12,7.52-26.8,19.84-42.46,32.89-35.93,29.94-80.65,67.19-115.69,65.88-51.12-1.92-95.29-25.37-138.01-48.05-48.84-25.93-94.98-50.42-149.13-43.64-14.29,1.79-28.62,15.06-43.78,29.11-10.32,9.56-20.99,19.45-31.89,25.79-53.56,31.16-54.08,57.57-54.68,88.14-.14,7.04-.28,14.32-1.06,22-6.14,61.21,4.96,92.1,16.71,124.81,6.98,19.41,14.19,39.48,17.98,66.9,4.28,31-2.16,46.7-9.61,64.89-12.74,31.1-28.6,69.81,2.78,203.88,14.61,62.43-9.46,113.79-57.87,177.06v4.92c50.54-65.41,75.91-118.09,60.79-182.67-31.16-133.13-15.51-171.35-2.93-202.06,7.62-18.59,14.19-34.65,9.8-66.44-3.83-27.73-11.1-47.95-18.12-67.51-11.64-32.38-22.63-62.96-16.55-123.5,.78-7.81,.93-15.15,1.07-22.24,.61-30.89,1.09-55.29,53.19-85.61,11.18-6.51,21.98-16.51,32.42-26.18,14.8-13.71,28.78-26.66,42.11-28.33,53.21-6.66,98.94,17.61,147.35,43.31,43.02,22.84,87.5,46.45,139.31,48.4,36.18,1.36,81.39-36.31,117.72-66.57,15.58-12.98,30.31-25.25,42.13-32.66,54.75-34.29,117.37-46.62,197.06-38.78,71.32,7.02,145.68,57.85,184.65,88.45v-3.81c-39.7-30.93-113.4-80.65-184.35-87.63-80.39-7.91-143.6,4.56-198.94,39.22Z"/><path d="M732.42,1361.3c16.55-44.96,35.24-106.09,55.56-181.67,10.21-37.98,32.22-53.68,57.71-71.85,24.59-17.53,52.46-37.41,74.26-82.06,19.88-40.72,29.95-81.97,29.95-122.69,0-1.44-.01-2.88-.04-4.32-.65-36.95-9.48-72.53-26.26-105.77-15.17-30.05-36.37-56.92-61.32-77.71-23.07-19.23-48.17-32.09-70.69-36.23-39.25-7.21-71.04-8-100.05-2.5-28.35,5.38-54.18,16.83-81.28,36.04-6.84,4.85-13.73,9.8-20.4,14.58-54.17,38.91-105.34,75.65-151.36,75.87-46.53,.22-83.43-14.15-115.98-26.83-45.97-17.9-85.67-33.36-135.29-1.09-44.97,29.25-25.12,80.89-4.11,135.56,9.19,23.92,18.7,48.65,23.56,72.96,5.1,25.49-8.91,59.97-23.73,96.48-12.7,31.28-25.84,63.62-27.19,91.73-1.76,36.6,3.43,70.78,8.44,103.82,6.23,41.06,12.11,79.83,5.13,121.28-9.35,55.49-38.81,89.05-70,124.58-20.4,23.24-41.42,47.19-57.82,78.51h1.13c16.31-30.99,37.18-54.76,57.44-77.85,31.28-35.64,60.83-69.3,70.23-125.07,7.01-41.6,1.12-80.46-5.12-121.6-5.01-33-10.18-67.12-8.43-103.62,1.34-27.94,14.44-60.2,27.12-91.4,12.74-31.37,24.88-61.25,24.88-85.37,0-4.06-.34-7.97-1.09-11.68-4.88-24.39-14.4-49.16-23.61-73.12-10.69-27.82-20.79-54.11-22.73-77.23-2.16-25.84,6.24-44,26.45-57.14,49.19-31.99,88.67-16.62,134.38,1.19,32.64,12.71,69.63,27.11,116.35,26.89,46.34-.22,97.64-37.06,151.94-76.06,6.66-4.78,13.55-9.73,20.39-14.58,52.95-37.54,105.27-47.21,180.58-33.37,48.05,8.83,102.04,55.46,131.29,113.41,35.91,71.14,34.62,153.49-3.65,231.88-21.69,44.42-49.45,64.22-73.94,81.68-25.64,18.28-47.79,34.08-58.09,72.41-20.31,75.56-39,136.65-55.54,181.59-20.28,55.1-69.92,110.42-113.71,159.23-25.45,28.37-49.76,55.45-65.95,79.81h1.2c16.15-24.15,40.25-51.02,65.49-79.14,43.86-48.88,93.56-104.27,113.91-159.55Z"/><path d="M511.2,1564.2c6.29-8.69,12.22-16.9,18.4-21.99,60.86-50.14,108.93-89.75,151.9-190.44,27.44-64.3,43.79-122.51,49.97-177.96,7.33-65.67,50.92-98.33,85.94-124.56,16.93-12.68,31.56-23.64,40.5-36.46,18.99-27.22,29.01-61.75,29.01-98.95,0-7.36-.39-14.83-1.19-22.37-4.93-46.83-25.14-91.7-56.91-126.35-27.03-29.48-59.96-44.68-97.89-45.19-36.72-.5-77.62,12.76-121.54,39.41-20.08,12.18-36.59,24.15-51.16,34.71-32.49,23.55-58.15,42.16-100.79,46.97-29.98,3.38-63.76-4.08-96.44-11.3-44.92-9.93-87.36-19.3-114.97,.43-20.42,14.6-11.46,40.95,.93,77.43,2.85,8.39,5.8,17.07,8.67,26.38,21.18,68.68,19.71,72.63,8.28,103.37-3.34,8.99-7.5,20.18-12.2,35.92-3.81,12.79-8.83,25.56-13.68,37.91-12.71,32.37-24.71,62.94-17.66,95.23,2.58,11.82,6.31,23.53,10.26,35.93,9.53,29.91,20.34,63.81,16.16,107.32-14.08,146.6-58.54,204.71-95.14,250.39h1.28c36.59-45.69,80.82-104.07,94.85-250.29,4.19-43.71-6.64-77.71-16.2-107.72-3.94-12.38-7.67-24.07-10.24-35.84-6.98-31.99,4.97-62.42,17.62-94.65,4.86-12.37,9.88-25.16,13.7-37.99,4.69-15.71,8.84-26.88,12.18-35.86,11.53-31.02,13.02-35-8.26-104.01-2.87-9.32-5.83-18.01-8.68-26.4-12.26-36.07-21.12-62.13-1.3-76.29,27.25-19.47,69.47-10.15,114.17-.27,32.75,7.24,66.62,14.72,96.77,11.32,42.91-4.84,68.66-23.52,101.27-47.16,14.55-10.55,31.04-22.51,51.09-34.66,89.56-54.33,165.01-52.39,218.18,5.61,63.98,69.78,76.71,178.03,29,246.43-8.85,12.69-23.41,23.6-40.28,36.23-35.18,26.35-78.96,59.15-86.34,125.25-6.17,55.35-22.5,113.46-49.9,177.68-42.87,100.46-90.86,140-151.61,190.06-6.28,5.17-12.25,13.43-18.58,22.18-9.43,13.03-20,27.62-34.48,36.39h1.93c13.92-8.94,24.17-23.11,33.35-35.8Z"/><path d="M602.65,1402.38c3.17-3.7,5.68-6.62,7.29-8.41,47.77-53.12,66.43-153.62,80.06-226.99,4.31-23.21,8.03-43.25,12.08-59.07,7.95-31.06,30.37-51.6,54.1-73.35,17.44-15.98,35.47-32.51,47.75-53.81,9.96-17.27,15.08-38.68,15.08-62.1,0-9.43-.83-19.19-2.52-29.13-5.14-30.32-18.08-60.7-34.62-81.28-40.11-49.9-95.27-54.94-168.63-15.42-24.01,12.94-45.35,27.08-64.17,39.55-25.55,16.93-47.62,31.56-66.7,36.64-39.66,10.56-83.6-1.02-118.91-10.32-32.95-8.68-58.98-15.54-72.54-3.97-8,6.83-10.92,19.86-8.92,39.83,2.62,26.2,11.27,43.62,19.63,60.47,9.83,19.81,20,40.3,20.57,75.33,.32,19.91-12.63,45.35-26.35,72.3-14.42,28.33-29.33,57.62-30.44,83.5-.84,19.86,5.74,32.92,13.36,48.04,8.37,16.61,17.86,35.44,20.91,68.66,1.32,14.37-1.11,34.82-3.92,58.51-5.78,48.76-12.98,109.44,9.88,148.68,7.63,13.1,32.7,25.68,62.38,31.29,34.5,6.52,69.09,2.68,94.91-10.55,52.67-26.98,115.91-100.67,139.72-128.41Zm-296.14,107.17c-11.88-20.38-15.57-46.65-15.57-74.04,0-24.96,3.07-50.84,5.82-74.02,2.82-23.74,5.25-44.24,3.92-58.71-3.06-33.41-12.6-52.33-21.01-69.02-7.56-15-14.09-27.94-13.25-47.55,1.09-25.66,15.96-54.85,30.33-83.09,13.78-27.06,26.77-52.64,26.46-72.77-.57-35.26-10.79-55.85-20.67-75.76-8.32-16.77-16.93-34.12-19.53-60.13-1.96-19.62,.84-32.37,8.57-38.97,13.16-11.23,40.26-4.09,71.64,4.18,35.42,9.33,79.51,20.95,119.42,10.32,19.24-5.12,41.37-19.79,67-36.78,18.81-12.46,40.12-26.59,64.09-39.51,72.86-39.25,127.61-34.29,167.38,15.17,33.97,42.25,50.9,121.2,21.97,171.38-12.2,21.17-30.18,37.64-47.56,53.57-23.84,21.86-46.37,42.5-54.39,73.84-4.06,15.85-7.78,35.91-12.1,59.13-13.61,73.26-32.24,173.59-79.82,226.5-1.62,1.8-4.13,4.72-7.3,8.43-23.77,27.7-86.92,101.28-139.41,128.17-58.48,29.95-141.54,4.41-155.97-20.35Z"/><path d="M532.87,1430.33c30.44-25.32,58.51-58.29,77.02-90.44,33.71-58.56,46.65-150.51,56.09-217.64,.98-6.95,1.92-13.63,2.84-19.98,5-34.47,27.7-62.65,49.64-89.9,6.81-8.45,13.84-17.19,20.25-25.99,13.13-18.03,20.35-42.99,20.35-69.65,0-3.26-.11-6.55-.33-9.85-1.92-28.97-12.03-53.89-27.04-66.66-25.29-21.5-74.33-31.43-119.14-8.8-28.05,14.17-37.35,21.43-59.83,38.99l-1.16,.9c-44.76,34.97-97.93,25.35-140.65,17.62-35.61-6.44-63.75-11.53-74.77,10.9-12.79,26.02,.2,63.24,11.66,96.08,7.03,20.14,13.67,39.17,12.55,51.51-3.34,36.96-17.32,63.54-29.66,87-9.33,17.75-18.15,34.51-20.27,52.54-2.37,20.09,6.1,32.28,15.9,46.39,8.95,12.88,19.08,27.48,23.27,51.55,2.22,12.73-1.07,31.88-4.55,52.16-7,40.82-15.72,91.61,14.78,120.75,19.94,19.04,44.91,26.56,74.24,22.34,30.77-4.43,64.93-21.66,98.78-49.82Zm-170.95,25.32c-29.35-28.03-20.78-77.96-13.9-118.07,3.68-21.43,6.85-39.94,4.55-53.18-4.3-24.72-14.64-39.61-23.76-52.75-9.46-13.62-17.62-25.37-15.39-44.33,2.06-17.47,10.35-33.24,19.95-51.49,12.47-23.7,26.59-50.57,29.99-88.12,1.18-12.99-5.26-31.42-12.71-52.77-11.27-32.29-24.04-68.88-11.8-93.76,10.03-20.4,37.18-15.49,71.55-9.27,43.31,7.84,97.21,17.59,143.03-18.21l1.15-.9c22.31-17.43,31.54-24.64,59.33-38.68,43.64-22.04,91.31-12.45,115.84,8.41,14.41,12.26,24.13,36.39,25.99,64.57,1.96,29.59-5.13,57.87-19.46,77.54-6.36,8.74-13.38,17.45-20.16,25.87-22.2,27.56-45.16,56.06-50.28,91.35-.92,6.35-1.86,13.04-2.84,20-9.41,66.89-22.29,158.5-55.72,216.56-34.63,60.15-107.25,129.23-173.63,138.79-28.37,4.08-52.5-3.16-71.74-21.54Z"/><path d="M537.54,1279.96c2.79-3.03,5.42-5.89,7.77-8.35,22.04-23.06,28.44-51.58,33.57-74.49,1.26-5.6,2.44-10.89,3.75-15.59,6.95-24.9,8.87-53.82,10.57-79.33,1.05-15.81,2.04-30.75,4.13-42.13,3.72-20.27,10.66-31.09,16.23-39.79,4.41-6.88,7.84-12.22,7.84-19.5,0-5.7-2.1-12.58-7.48-22.3-11.28-20.39-32.38-13.58-56.81-5.71-20.14,6.49-42.97,13.85-64.92,7.59-21.3-6.08-35.72-5.97-44.08,.34-6.41,4.84-9.4,13.14-9.4,26.11,0,11.03,2,19.26,4.33,28.79,2.53,10.38,5.39,22.14,6.45,40.67,.98,17.31-10.57,36.07-21.74,54.2-10.97,17.82-22.32,36.24-22.32,53.8,0,20.78,6.46,29.19,14.65,39.84,8.25,10.74,18.52,24.11,24.53,55.85,4.69,24.83,20.24,41.52,38.68,41.52,16.04,0,38.14-24,54.27-41.52Zm-91.96-.18c-6.05-31.98-16.4-45.45-24.72-56.28-8.07-10.5-14.44-18.79-14.44-39.23,0-17.27,11.27-35.58,22.17-53.27,11.25-18.27,22.88-37.18,21.88-54.78-1.06-18.62-3.94-30.43-6.47-40.85-2.31-9.46-4.3-17.64-4.3-28.55,0-12.63,2.86-20.68,9.01-25.31,8.09-6.1,22.22-6.16,43.2-.17,22.24,6.35,45.23-1.06,65.5-7.6,24.01-7.74,44.75-14.43,55.63,5.24,11.96,21.62,7.34,28.83-.32,40.78-5.62,8.77-12.62,19.69-16.38,40.15-2.1,11.43-3.09,26.4-4.14,42.24-1.69,25.46-3.61,54.33-10.53,79.13-1.32,4.72-2.51,10.02-3.77,15.64-5.11,22.79-11.47,51.16-33.32,74.02-2.36,2.47-4.99,5.33-7.79,8.36-16.01,17.39-37.94,41.2-53.54,41.2-17.94,0-33.09-16.36-37.69-40.7Z"/><path d="M574.01,1135.08c1.96-12.7,3.17-26.76,3.17-40.67,0-30.23-5.75-59.75-22.14-73.06-9.97-8.1-22.79-9.28-38.1-3.53-13.86,5.2-24.53,3.37-32.33,2.03-7.98-1.37-13.26-2.28-15.93,5.26-4.54,12.78-3.28,16.89-1.37,23.12,2.33,7.61,5.53,18.04,.7,51.03-1.48,10.11-7.14,21.33-13.14,33.2-9.26,18.35-18.83,37.32-15.83,56.35,1.63,10.3,8.18,18.23,15.12,26.64,3.07,3.72,6.24,7.56,9.09,11.73,3.21,4.7,5.49,9.19,7.69,13.53,6.17,12.15,11.51,22.65,33.85,28.79,4.36,1.2,8.98,.25,13.72-2.83,25.19-16.32,48.79-88.17,55.48-131.59Zm-68.93,133.45c-21.92-6.02-26.91-15.84-33.23-28.27-2.22-4.37-4.52-8.89-7.76-13.64-2.87-4.21-6.06-8.07-9.15-11.81-6.85-8.29-13.32-16.13-14.91-26.16-.38-2.38-.55-4.75-.55-7.13,0-16.35,8.26-32.72,16.28-48.62,6.03-11.95,11.73-23.24,13.23-33.51,4.86-33.22,1.63-43.76-.74-51.47-1.85-6.04-3.07-10.03,1.35-22.49,2.39-6.74,7.07-5.94,14.82-4.61,7.91,1.36,18.74,3.22,32.85-2.08,14.96-5.62,27.45-4.48,37.12,3.37,19.43,15.78,26.73,60.06,18.61,112.81-6.66,43.24-30.09,114.74-55.04,130.9-4.49,2.91-8.84,3.82-12.91,2.7Z"/><path d="M558.43,1155.88c2.52-10.53,4.53-22.77,4.53-35.03,0-16.22-3.51-32.47-14.01-44.82-8.14-9.58-15.78-13.64-22.71-12.04-9.28,2.13-16.86,14.32-22.51,36.22-2.75,10.65-11.3,16.89-20.36,23.5-16.38,11.95-34.94,25.5-24.07,68.59,3.96,15.69,22.08,27.17,37.25,31.21,14.42,3.84,27.19,1.82,34.15-5.4,8.41-8.71,21.08-34.37,27.74-62.22Zm-61.11,64.72c-14.35-3.82-31.45-14.54-35.11-29.05-10.38-41.12,6.55-53.48,22.93-65.43,9.5-6.93,18.47-13.48,21.49-25.17,5.28-20.44,12.29-32.21,20.28-34.05,5.75-1.32,12.39,2.4,19.75,11.06,33.01,38.85-3.71,123.11-18.12,138.05-6.19,6.42-17.86,8.13-31.22,4.58Z"/><path d="M774.48,546c-6.29,.31-12.76,.55-19.02,.78-47.47,1.76-96.56,3.58-158.18,35.27-18.08,9.3-34.28,24.28-51.43,40.14-45.89,42.43-97.89,90.53-200.08,27.88-16.03-9.83-32.32-21.56-49.56-33.97-42.87-30.87-87.2-62.79-129.02-65.44-71.3-4.52-141.51,65.07-167.17,119.34v2.36c24.75-54.27,95.41-125.26,167.11-120.71,41.54,2.63,85.75,34.47,128.5,65.25,17.26,12.43,33.57,24.17,49.63,34.02,45.95,28.17,85.72,36.65,121.58,25.93,31.6-9.45,56.05-32.06,79.7-53.93,17.1-15.81,33.25-30.75,51.21-39.99,61.43-31.59,110.4-33.41,157.76-35.16,6.26-.23,12.74-.47,19.04-.78,71.36-3.52,155.17,21.19,215.48,63.2v-1.23c-60.43-41.89-144.18-66.49-215.52-62.97Z"/><path d="M709.48,298.04c-87.97,20.48-113.92,59.38-153.2,118.28-13.87,20.8-22.87,51.7-32.39,84.41-17.41,59.8-35.42,121.64-85.5,133.29-41.62,9.68-66.33-11.33-100.54-40.4-36.12-30.7-81.07-68.9-165.61-87.57-58.77-12.98-101.63-10.34-143.07-7.79-9.93,.61-19.53,1.2-29.17,1.57v1c9.66-.37,19.28-.96,29.23-1.57,41.38-2.55,84.16-5.18,142.79,7.77,84.29,18.62,129.14,56.73,165.18,87.36,34.43,29.26,59.31,50.4,101.42,40.61,50.65-11.78,68.74-73.9,86.23-133.98,9.5-32.64,18.48-63.46,32.27-84.14,39.15-58.7,65.01-97.47,152.6-117.86,51.69-12.03,96.63-13.94,136.28-15.63,52.81-2.25,99.17-4.24,144.01-29.54v-1.15c-44.8,25.46-91.19,27.45-144.05,29.69-39.69,1.69-84.68,3.6-136.46,15.65Z"/><path d="M808.06,249.45c-20.43,1.05-41.56,2.14-63.46,6.04-48.57,8.66-91.31,25.87-127.02,51.13-34.83,24.65-64.03,57.7-86.77,98.25-6.64,11.84-13.72,28.26-21.92,47.28-23.71,54.98-53.23,123.41-93.46,129.85-27.62,4.42-63.67-22.02-105.42-52.65-40.61-29.79-86.64-63.55-134.26-74.94-29.22-6.99-54.02-10.83-77.99-14.54-31.68-4.91-61.8-9.58-97.75-21v1.05c35.89,11.37,65.97,16.04,97.6,20.94,23.96,3.71,48.73,7.55,77.91,14.53,47.42,11.34,93.37,45.04,133.9,74.77,41.93,30.75,78.14,57.32,106.17,52.83,40.78-6.53,70.41-75.24,94.22-130.45,8.19-18.99,15.26-35.39,21.88-47.18,45.85-81.76,117.55-131.85,213.09-148.89,21.84-3.89,42.94-4.98,63.34-6.03,58.91-3.03,114.69-5.91,181.89-73.4v-1.42c-67.25,67.91-123.03,70.79-181.94,73.82Z"/><path d="M207.49,90c26.55,.66,75.81-3.63,91.98-23.94,3.7-4.65,5.56-9.93,5.56-15.77,0-2.53-.35-5.17-1.05-7.91-5.91-23.09-19.04-29.32-30.61-34.83-4.85-2.31-9.28-4.42-12.68-7.55h-1.41c3.66,3.69,8.56,6.03,13.66,8.45,11.38,5.41,24.28,11.54,30.08,34.17,2.23,8.73,.78,16.4-4.33,22.81-15.93,20-64.81,24.22-91.18,23.57-40.82-1.02-80.6-1.27-118.45,6.7C51.85,103.54,22.54,118.37,0,140.85v1.45c55.65-56.07,142.75-53.91,207.49-52.29Z"/><path d="M31.83,217.88c69.8-61.23,90.68-62.83,206.56-71.68l7.98-.61c17.46-1.34,23.21-6.92,29.87-13.38,6.1-5.92,13.01-12.63,30.92-17.23,9.28-2.38,23.83-1.15,39.23,.16,24.37,2.07,49.57,4.22,59.9-7,8.85-9.6,11.77-23.8,8.45-41.08-4.87-25.38-21.74-52-38.09-67.06h-1.46c16.44,14.76,33.66,41.63,38.57,67.25,3.25,16.96,.42,30.86-8.2,40.22-10,10.86-34.95,8.73-59.08,6.68-15.49-1.32-30.12-2.56-39.56-.13-18.17,4.67-25.18,11.47-31.37,17.48-6.52,6.32-12.15,11.79-29.25,13.1l-7.98,.61c-116.16,8.88-137.09,10.47-207.14,71.93-13.17,11.56-23.93,26.4-31.17,42.6v2.51c7.17-16.88,18.19-32.4,31.83-44.36Z"/><path d="M721.47,232c-98.19,6.81-134.78,43.93-161.36,78.19-12.65,16.3-25.78,42.49-39.69,70.22-30.85,61.5-65.81,131.21-115.01,141.59-46,9.71-131.4-47.45-187.91-85.28-8.02-5.37-15.6-10.44-22.21-14.75-29.05-18.9-57.27-21.54-84.56-24.09-36.58-3.42-71.13-6.65-104.82-47.71-2.2-2.68-4.16-5.54-5.89-8.55v1.96c1.54,2.53,3.24,4.94,5.11,7.23,33.96,41.38,68.71,44.63,105.5,48.07,27.17,2.54,55.26,5.17,84.11,23.93,6.61,4.3,14.18,9.37,22.2,14.74,56.65,37.92,142.26,95.23,188.67,85.43,49.67-10.49,84.75-80.42,115.7-142.12,13.89-27.69,27-53.84,39.59-70.06,26.45-34.09,62.86-71.03,160.64-77.81,38.49-2.67,112.97-12.71,179.3-50,29.66-16.68,53.76-36.82,71.61-59.87,6.74-8.7,12.59-17.85,17.56-27.4v-2.53c-46.37,90.78-166.69,131.75-268.53,138.81Z"/><path d="M452.38,78.44c9.53,23.97,17.06,42.91,5.88,59.21-10.14,14.79-36.44,11.4-66.89,7.47-14.58-1.88-29.65-3.82-44.85-4.12-18.27-.36-32.24,8.17-45.76,16.43-12.61,7.71-25.65,15.67-42.35,16.57-11.08,.6-21.08,.67-30.76,.75-26.6,.21-49.58,.38-80.66,11.33-31.66,11.16-101.2,48.19-114.04,91.45-4.45,15.01-1.59,29.3,8.53,42.46,17.24,22.44,43.43,26.2,73.76,30.54,22.11,3.17,44.96,6.44,67.6,17.32,12.45,5.98,29.43,17,49.1,29.76,50.33,32.65,119.26,77.37,161.93,66.34,55.31-14.29,80.85-59.11,119.5-126.95,6.16-10.8,12.52-21.98,19.42-33.74,50.47-86.1,74.93-104.79,137.72-105.26,28.4-.21,70.65-7.17,107.64-17.73,44.38-12.67,76.87-28.93,91.49-45.79,23.48-27.09,76.72-99.84,101.26-134.48h-3.68c-25,35.22-76.81,105.94-99.85,132.52-30.87,35.62-139.03,62.05-196.88,62.48-64.19,.48-89.1,19.43-140.28,106.74-6.91,11.78-13.28,22.96-19.44,33.78-38.27,67.18-63.56,111.56-117.64,125.53-41.39,10.69-109.68-33.61-159.54-65.96-19.75-12.81-36.81-23.88-49.43-29.94-23.05-11.07-47.18-14.53-68.47-17.58-29.68-4.25-55.31-7.93-71.81-29.4-9.49-12.36-12.2-25.75-8.03-39.78,12.51-42.15,80.97-78.48,112.16-89.47,30.61-10.79,53.35-10.96,79.69-11.16,9.71-.08,19.75-.15,30.89-.75,17.46-.94,30.83-9.11,43.76-17.01,13.75-8.4,26.74-16.34,44.13-15.99,15.03,.3,30.02,2.23,44.52,4.1,31.43,4.05,58.57,7.55,69.75-8.75,12.09-17.63,3.9-38.2-5.57-62.01-8.94-22.48-18.93-47.59-16.21-77.33h-2.99c-2.63,30.55,7.8,56.8,16.41,78.44Z"/><path d="M864.01,1356.37c-4.62,27.68-8.98,53.83-19.89,82.62-40.58,107.14-55.45,129.66-108.03,161.01h5.83c19.9-12.19,35.55-24.3,49.06-41.96,18.75-24.51,34.13-60.37,55.95-117.99,11.01-29.07,15.4-55.36,20.04-83.19,4.47-26.8,9.09-54.5,19.96-87.9,7.54-23.17,75.68-107.29,103.07-136.71v-4.37c-26.02,27.36-98.09,116.07-105.93,140.15-10.93,33.61-15.58,61.43-20.07,88.33Z"/><path d="M929.42,1109.3l-4.25,3.31c-27.63,21.44-49.45,38.37-75.1,85.65-21.86,40.29-28.67,74.11-35.87,109.91-2.97,14.76-6.04,30.02-10.27,46.14-24.86,94.82-55.61,125.49-85.34,155.16-7.74,7.72-15.06,15.02-22.26,23.42l-2.28,2.66c-14.91,17.43-34.36,40.15-67.28,64.46h1.69c32.35-24.06,51.57-46.53,66.35-63.81l2.28-2.66c7.17-8.37,14.47-15.65,22.2-23.36,29.83-29.76,60.67-60.53,85.6-155.61,4.23-16.14,7.31-31.42,10.28-46.19,7.19-35.73,13.98-69.48,35.77-109.63,25.55-47.09,47.3-63.97,74.84-85.34l4.26-3.31c29.69-23.11,48.75-41.09,59.97-64.43v-2.35c-11.02,24.13-30.22,42.35-60.58,65.99Z"/><path d="M810.6,625.01c-44.47-9.38-83.05-9.93-117.97-1.66-29.68,7.02-57.41,20.48-87.28,42.36-10.61,7.77-21.12,15.76-31.28,23.49-45.93,34.92-89.3,67.91-129.61,70.81-27.19,1.95-63.68-12.98-102.31-28.79-62.07-25.4-132.42-54.18-187.89-24.16-76.32,41.31-56.57,107.87-33.7,184.93,4.67,15.75,9.51,32.04,13.67,48.62,14.1,56.18,.97,94.55-12.93,135.17-14.61,42.69-29.72,86.84-12.52,154.5,11.65,45.83,9.72,130.4-11.73,183.24-14.58,35.92-64.58,79.56-97.05,101.14v1.2c32.57-21.55,83.24-65.66,97.97-101.96,21.52-53.02,23.46-137.88,11.77-183.86-17.12-67.38-2.06-111.38,12.5-153.93,13.95-40.76,27.13-79.27,12.96-135.74-4.17-16.6-9-32.89-13.68-48.66-22.75-76.64-42.39-142.84,33.22-183.77,55.05-29.8,125.17-1.11,187.03,24.2,38.75,15.85,75.34,30.83,102.76,28.86,40.6-2.92,84.1-35.99,130.14-71.01,10.16-7.72,20.66-15.71,31.27-23.48,46.06-33.73,102.71-61.99,204.45-40.52,113.21,23.89,161.14,129.79,171.61,188.6,3.02,16.97,5.68,32.62,7.99,47.1v-6.37c-2.07-12.7-4.41-26.29-7.01-40.9-10.52-59.06-58.66-165.4-172.39-189.4Z"/><path d="M326.94,209.91c-13.19,8.67-24.59,16.15-41.31,16.15-58.35,0-132.28,5.11-153.08,29.55-4.74,5.57-6.57,11.98-5.42,19.03,2.12,13.09,17.28,15.86,36.46,19.36,14.52,2.65,30.98,5.66,44.95,13.94,13.84,8.21,25.99,18.5,37.74,28.44,28.22,23.9,54.88,46.47,103.16,42.72,43.42-3.37,87.97-27.73,110.86-60.6,11.31-16.24,17.04-33.73,17.04-51.53,0-7.84-1.11-15.74-3.35-23.62-7.13-25.09-24.39-38.91-37.62-46.08-16.9-9.16-37.31-12.82-56-10.03-24.51,3.66-39.87,13.75-53.43,22.65Zm146.08,33.73c7.24,25.48,2.56,51.17-13.55,74.31-22.72,32.64-66.97,56.82-110.11,60.17-47.87,3.72-74.38-18.72-102.44-42.48-11.78-9.97-23.96-20.29-37.87-28.54-14.12-8.38-30.67-11.4-45.28-14.07-18.8-3.44-33.65-6.15-35.66-18.54-.21-1.3-.32-2.58-.32-3.83,0-5.25,1.85-10.08,5.52-14.39,20.55-24.14,94.18-29.2,152.32-29.2,17.02,0,28.53-7.56,41.86-16.31,13.47-8.85,28.73-18.88,53.02-22.5,36.2-5.4,80.69,13.84,92.5,55.39Z"/><path d="M556.08,108.44c29.56,26.38,67.35,39.23,106.39,36.19l1.03-.08c49.58-3.86,92.4-7.19,125.88-26.38,35.54-20.36,58.11-57.97,70.89-118.17h-1.02c-12.73,59.78-35.13,97.12-70.36,117.3-33.28,19.07-76,22.39-125.46,26.25l-1.03,.08c-38.77,3.02-76.29-9.74-105.65-35.94-30.49-27.2-49.16-66.29-51.58-107.69h-1c2.42,41.69,21.22,81.05,51.92,108.44Z"/><path d="M602.79,86.54c23.1,13.73,48.06,15.4,74.48,17.18l.71,.05c35.92,2.42,66.81-5.58,89.31-23.14,23.14-18.05,36.96-45.16,41.14-80.62h-1.01c-8.35,69.36-56.34,107.68-129.37,102.76l-.71-.05c-26.3-1.77-51.14-3.44-74.04-17.04-26.3-15.63-43.35-45.19-49.52-85.68h-1.01c6.2,40.87,23.43,70.73,50.02,86.54Z"/><path d="M474.79,71.85c1.99,4.22,4.78,9.17,7.73,14.42,8.02,14.24,17.12,30.37,16.89,42.56-.48,26.84-13,39.84-44.64,46.36-14.27,2.94-34.62,.14-54.3-2.58-20.81-2.87-42.33-5.84-57.33-2.2-10.03,2.43-20.15,9.2-29.93,15.74-11.51,7.7-23.41,15.65-35.33,16.73-12.71,1.15-25.42,1.21-37.71,1.27-19.16,.09-38.97,.19-58.57,4.5-41.99,9.22-102.3,46.82-104.17,71.2-1.77,22.97,32.53,31.12,68.85,39.73,24.22,5.74,49.27,11.68,62.17,22.39,45.8,38.01,87.57,62.14,124.14,71.72,46.75,12.24,85.53,.85,115.28-33.86,43.02-50.19,66.14-100.29,83.02-136.87,8.91-19.31,15.94-34.55,22.99-43.14,22.71-27.67,48.92-28.41,82.11-29.35,7.53-.21,15.32-.43,23.53-.98,8.42-.56,16.94-.99,25.17-1.42,49.43-2.53,96.12-4.93,131.75-32.14,12.56-9.59,21.47-21.53,33.81-38.04,5.08-6.8,10.84-14.51,17.63-23.07,8.61-10.86,21.25-30.62,32.4-48.06,6.41-10.02,12.5-19.55,17.4-26.75h-1.21c-4.84,7.14-10.79,16.44-17.04,26.21-11.14,17.42-23.76,37.16-32.34,47.98-6.8,8.57-12.56,16.29-17.65,23.09-12.29,16.45-21.16,28.33-33.61,37.84-35.38,27.03-81.92,29.42-131.19,31.94-8.24,.42-16.77,.86-25.19,1.42-8.2,.54-15.97,.76-23.5,.98-33.45,.95-59.86,1.7-82.86,29.72-7.13,8.68-14.19,23.99-23.13,43.36-16.86,36.53-39.94,86.55-82.87,136.64-29.48,34.39-67.93,45.68-114.27,33.54-36.44-9.54-78.08-33.6-123.76-71.52-13.08-10.86-38.25-16.82-62.58-22.59-35.89-8.51-69.78-16.53-68.08-38.68,1.84-24.01,61.71-61.14,103.39-70.29,19.5-4.28,39.26-4.38,58.36-4.47,12.31-.06,25.04-.12,37.79-1.28,12.17-1.1,24.18-9.13,35.79-16.9,9.71-6.49,19.75-13.21,29.61-15.6,14.82-3.59,36.24-.64,56.96,2.22,19.77,2.73,40.2,5.54,54.64,2.57,26.86-5.54,44.87-15.71,45.44-47.33,.2-12.44-8.94-28.71-17.02-43.06-2.94-5.23-5.72-10.17-7.7-14.35-10.53-22.3-9.77-47.12-8.23-71.42h-1c-1.55,24.41-2.31,49.35,8.32,71.85Z"/><path d="M98.62,128.36c22.3-5.99,96.07-2.9,96.77-2.85,36.11,2.35,42.09-2.79,52.95-12.13,7.47-6.42,16.76-14.41,39.35-23.42,13.57-5.41,29.48-3.64,43.51-2.08,14.03,1.56,27.28,3.04,35.6-2.98,8.26-5.98,13.01-12.88,14.12-20.52,.18-1.24,.27-2.48,.27-3.71,0-11.25-7.11-22.14-14.28-31.48-10.73-13.96-25.23-22.03-43.69-29.2h-2.8c19.47,7.35,34.65,15.42,45.7,29.8,7.83,10.19,15.6,22.25,13.82,34.44-1.07,7.36-5.69,14.04-13.72,19.85-8,5.79-21.07,4.34-34.9,2.8-14.15-1.58-30.19-3.36-43.99,2.14-22.74,9.07-32.5,17.46-39.63,23.59-10.66,9.16-16.54,14.21-52.24,11.89-.7-.05-74.66-3.14-97.09,2.88-26.39,7.09-71.34,24.1-98.36,61.48v1.74c26.75-37.94,72.1-55.13,98.62-62.26Z"/><path d="M176.92,75.45c8.16,1.81,42.79,2.6,50.97-7.64,3.64-4.55,4.84-8.17,4.84-11.58,0-2.99-.93-5.81-1.95-8.93-1.28-3.91-2.73-8.33-2.88-14.32l-.06-2.49c-.24-11.04-.47-21.64-5.07-30.49h-1.14c4.74,8.77,4.97,19.42,5.21,30.51l.06,2.49c.15,6.14,1.62,10.64,2.93,14.61,2.19,6.66,3.76,11.47-2.72,19.58-7.79,9.74-42.21,9.01-49.98,7.28-46.51-10.32-99.72-3.56-100.28-3.49-35.66,6.71-56.12,11.07-76.86,24.9v1.2c20.79-14.02,41.2-18.38,77.01-25.12,.53-.07,53.57-6.8,99.9,3.48Z"/><path d="M271.82,260.9c-5.01,4.7-11.04,11.16-13.2,19.49-2.38,9.18,.39,19.88,7.4,28.62,6.91,8.6,16.56,14.12,24.2,17.97,27.84,14.02,57.81,19.02,84.39,14.08,29.91-5.55,56.01-24.47,68.13-49.37,3.4-6.99,5.1-14.73,5.1-22.55s-1.77-16.02-5.3-23.42c-6.71-14.07-18.91-24.08-33.48-27.46-13.6-3.16-27.71-1.19-39.87,.9-44.22,7.62-75.17,20.88-97.39,41.73Zm137.03-41.66c14.27,3.32,26.23,13.13,32.8,26.92,6.86,14.39,6.94,31.25,.2,45.1-11.98,24.62-37.81,43.33-67.41,48.83-26.37,4.89-56.11-.08-83.76-13.99-7.55-3.8-17.09-9.25-23.87-17.7-5.22-6.5-8.02-14.09-8.02-21.28,0-2.21,.27-4.38,.81-6.47,2.1-8.08,8-14.41,12.91-19.02,22.07-20.71,52.86-33.89,96.87-41.47,12.06-2.08,26.05-4.03,39.47-.92Z"/><path d="M825.93,314.78c-69.67,3.19-120.59,13.75-155.67,32.28-37.19,19.65-92.76,69.36-99.86,118.36-3.21,22.21,3.76,41.86,20.74,58.44,17.47,17.06,42.91,11.2,78.12,3.09,27.39-6.31,61.49-14.16,103.32-14.09,86.38,.13,167.65,20.93,217.42,41.23v-1.08c-49.89-20.29-131.11-41.02-217.42-41.15-41.94-.06-76.1,7.8-103.54,14.12-34.9,8.04-60.12,13.84-77.19-2.83-16.73-16.34-23.61-35.71-20.45-57.58,7.04-48.65,62.33-98.07,99.33-117.62,34.94-18.46,85.72-28.98,155.25-32.16,45.99-2.1,76.34,4.01,103.11,9.41,19.67,3.97,38.38,7.73,60.91,7.9v-1c-22.43-.17-41.09-3.93-60.71-7.88-26.83-5.41-57.24-11.54-103.36-9.43Z"/><path d="M763.2,357.78c-39.59,6.75-75.28,21.88-100.48,42.59-24.63,20.24-36.97,43.68-34.72,65.99,.62,6.17,3.16,10.91,7.54,14.06,13.94,10.04,44.79,3.08,72.01-3.06,10.39-2.34,20.21-4.56,28.64-5.77,70.84-10.2,200.89,12.6,253.81,33.61v-1.08c-53.27-21.01-183.14-43.71-253.95-33.52-8.47,1.22-18.3,3.44-28.72,5.79-27.02,6.1-57.64,13.01-71.21,3.23-4.2-3.03-6.53-7.39-7.13-13.35-2.2-21.97,10-45.09,34.36-65.11,25.07-20.6,60.59-35.65,100.01-42.37,81.93-13.97,168.01,23.66,209.38,41.75,7.51,3.28,13.3,5.81,17.25,7.23v-1.07c-3.97-1.46-9.75-3.98-16.85-7.08-41.46-18.12-127.72-55.84-209.95-41.82Z"/><path d="M594.34,1297.31c29.04-54.38,36.86-116.58,43.14-166.55,3.56-28.35,6.64-52.84,12.7-71.57,4.47-13.82,11.24-25.28,19.09-38.55,9.66-16.34,20.6-34.87,30.68-63.37,3.37-9.54,4.59-18.36,4.59-26.15,0-8.75-1.54-16.2-3.33-21.87-4.56-14.52-12.35-23.54-18.12-27.13-20.08-12.52-51.38-13.09-68.02-5.77-11.44,5.03-25.02,13.17-38.16,21.05-16.01,9.6-32.57,19.52-44.85,23.52-14.95,4.87-35.29,1.83-42.94,.69-.71-.11-70.72-10.4-89.81,.07-12.18,6.68-18.26,21.48-18.1,43.94,.33,43.49,4.66,63.23,7.83,77.64,2.89,13.17,4.98,22.68,2.67,42.51-1.36,11.67-10.03,26.38-19.21,41.95-10.99,18.65-22.36,37.94-22.9,54.65-.49,15.14,5.46,25.8,12.98,39.29,7.85,14.08,17.63,31.61,24.24,61.22,4.46,19.94,1.24,37.76-1.87,54.99-4.91,27.21-9.55,52.91,20.64,79.12,15.96,13.85,34.07,19.03,53.82,15.38,51.39-9.5,103.4-75.97,134.93-135.02Zm-188.1,118.89c-18.77-16.29-23.96-31.96-23.96-48.36,0-9.6,1.78-19.45,3.65-29.83,3.13-17.33,6.37-35.25,1.87-55.39-6.65-29.75-16.46-47.35-24.34-61.49-7.44-13.35-13.32-23.92-12.85-38.77,.53-16.46,11.83-35.63,22.76-54.17,9.23-15.66,17.96-30.46,19.34-42.34,2.33-20,.22-29.58-2.69-42.84-3.15-14.37-7.47-34.04-7.8-77.43-.18-22.09,5.74-36.57,17.58-43.06,18.79-10.3,88.48-.06,89.18,.04,7.72,1.15,28.22,4.21,43.4-.73,12.39-4.03,29-13.99,45.06-23.61,13.11-7.86,26.66-15.98,38.04-20.99,16.41-7.22,47.28-6.65,67.09,5.7,11.79,7.35,29.32,37.53,16.44,73.98-10.04,28.41-20.96,46.9-30.59,63.2-7.87,13.32-14.67,24.83-19.18,38.75-6.09,18.82-9.17,43.35-12.74,71.76-6.27,49.9-14.08,112-43.03,166.21-31.42,58.84-83.19,125.08-134.23,134.51-19.44,3.59-37.26-1.51-52.98-15.15Z"/><path d="M533.56,1322.06c4.9-7.34,8.78-13.13,11.74-16.02,14.27-13.93,29.93-30.84,37.91-50.62,19.09-47.36,21.17-75.08,23.79-110.17,1.45-19.35,3.08-41.29,7.96-69.87,5.05-29.61,20.48-66.67,38.39-92.21,9.33-13.3,14.04-26.12,14.04-37.39,0-8.45-2.65-16.04-7.99-22.33-15.61-18.37-39.54-4.89-58.77,5.95-4.61,2.6-8.96,5.05-12.81,6.83-16.15,7.47-35.06,10.5-59.49,9.51-18.41-.74-35.21-.5-52.99-.24-9.21,.13-18.73,.27-28.53,.26-7.45,0-12.95,1.18-17.32,3.73-7.09,4.15-11.9,12.57-13.89,24.37-4.12,24.37,2.58,48.98,9.06,72.78,1.17,4.3,2.38,8.75,3.5,13.1,5.74,22.32-9.13,44.83-24.88,68.65-11.45,17.32-23.29,35.24-26.24,52.95-2.24,13.42,4.58,24.61,13.22,38.78,7.12,11.69,15.2,24.93,20.08,42.69,2.67,9.73,4.64,20.61,6.55,31.14,5.29,29.21,10.76,59.42,31.83,74.3,9.24,6.52,18.76,8.93,28.31,7.16,23.85-4.42,43.53-33.86,56.54-53.33Zm-84.27,45.35c-20.73-14.64-26.16-44.65-31.42-73.66-1.91-10.55-3.89-21.45-6.57-31.22-4.92-17.9-13.03-31.21-20.19-42.95-7.43-12.19-13.5-22.15-13.5-33.14,0-1.62,.13-3.27,.41-4.95,2.92-17.5,14.7-35.33,26.09-52.56,12.95-19.59,26.27-39.74,26.27-59.37,0-3.38-.39-6.74-1.25-10.08-1.12-4.36-2.33-8.81-3.5-13.11-6.45-23.7-13.12-48.2-9.04-72.35,1.36-8.01,4.78-18.62,13.41-23.67,4.21-2.46,9.55-3.61,16.82-3.6,9.81,.01,19.33-.13,28.54-.26,17.77-.25,34.55-.5,52.94,.24,24.6,.99,43.65-2.07,59.95-9.61,3.88-1.79,8.25-4.26,12.88-6.87,18.91-10.65,42.44-23.91,57.51-6.17,12.15,14.3,9.93,35.62-6.11,58.5-17.98,25.66-33.48,62.88-38.56,92.62-4.89,28.63-6.53,50.59-7.98,69.97-2.62,35.01-4.68,62.66-23.72,109.87-7.91,19.61-23.48,36.42-37.68,50.28-3.03,2.96-6.93,8.8-11.87,16.18-12.92,19.34-32.46,48.56-55.89,52.9-9.27,1.72-18.54-.64-27.55-7Z"/><path d="M881.13,1568.93c-7.43,13.14-17.21,23.4-29.75,31.07h1.81c38.6-24.57,45.23-71.18,53.08-126.44,9-63.38,20.03-140.97,83.73-211.59v-1.5c-64.56,71.05-75.66,149.17-84.72,212.95-5.38,37.83-10.02,70.51-24.15,95.52Z"/><path d="M124.93,56.71c1.62,.1,3.25,.21,4.87,.33,8.67,.6,17.62,1.23,26.42-.01,12.1-1.7,21.94-6.94,27.71-14.75,3.2-4.33,5.16-10.14,5.16-15.92,0-5.28-1.63-10.53-5.44-14.61-4.12-4.42-10.3-7.11-18.36-8-3.55-.39-7.15-.43-10.63-.46-2.89-.03-5.88-.06-8.79-.3-4.83-.4-9.62-1.43-14.23-3h-7.95c6.91,3.28,14.38,5.37,21.94,5.99,3.01,.25,6.06,.28,9,.31,3.41,.03,6.93,.07,10.33,.45,7.33,.81,12.88,3.19,16.5,7.06,6.91,7.41,5.46,19.4,.06,26.7-7.13,9.65-19.17,12.64-25.72,13.56-8.48,1.19-17.28,.58-25.79-.01-1.63-.11-3.26-.23-4.89-.33-30.05-1.87-60.22,.36-89.67,6.62-10.8,2.3-23.68,5.65-35.44,11.8v3.36c11.55-6.34,24.42-9.74,36.07-12.22,29.18-6.21,59.08-8.42,88.86-6.56Z"/></g></g></g></svg>