<?xml version="1.0" encoding="utf-8"?>
<svg version="1.1" id="Layer_1"
    xmlns="http://www.w3.org/2000/svg"
    xmlns:xlink="http://www.w3.org/1999/xlink" x="0px" y="0px" viewBox="0 0 100 100" style="enable-background:new 0 0 100 100;" xml:space="preserve">
    <style type="text/css">.st0{clip-path:url(#SVGID_00000119798018133989694900000012833506568397429382_)}.st1{fill:none;stroke:#D9C291;stroke-width:0.2;stroke-miterlimit:10}</style>
    <g>
        <defs>
            <rect id="SVGID_1_" width="100" height="100"/>
        </defs>
        <clipPath id="SVGID_00000098189186284533947030000006136013733602852014_">
            <use xlink:href="#SVGID_1_" style="overflow:visible;"/>
        </clipPath>
        <g style="clip-path:url(#SVGID_00000098189186284533947030000006136013733602852014_);">
            <line class="st1" x1="218.5" y1="-18.6" x2="85.1" y2="114.8"/>
            <line class="st1" x1="216.5" y1="-18.6" x2="83.1" y2="114.8"/>
            <line class="st1" x1="214.5" y1="-18.6" x2="81.1" y2="114.8"/>
            <line class="st1" x1="212.5" y1="-18.6" x2="79.1" y2="114.8"/>
            <line class="st1" x1="210.5" y1="-18.6" x2="77.1" y2="114.8"/>
            <line class="st1" x1="208.5" y1="-18.6" x2="75.1" y2="114.8"/>
            <line class="st1" x1="206.5" y1="-18.6" x2="73.1" y2="114.8"/>
            <line class="st1" x1="204.5" y1="-18.6" x2="71.1" y2="114.8"/>
            <line class="st1" x1="202.5" y1="-18.6" x2="69.1" y2="114.8"/>
            <line class="st1" x1="200.5" y1="-18.6" x2="67.1" y2="114.8"/>
            <line class="st1" x1="198.5" y1="-18.6" x2="65.1" y2="114.8"/>
            <line class="st1" x1="196.5" y1="-18.6" x2="63.1" y2="114.8"/>
            <line class="st1" x1="194.5" y1="-18.6" x2="61.1" y2="114.8"/>
            <line class="st1" x1="192.5" y1="-18.6" x2="59.1" y2="114.8"/>
            <line class="st1" x1="190.5" y1="-18.6" x2="57.1" y2="114.8"/>
            <line class="st1" x1="188.5" y1="-18.6" x2="55.1" y2="114.8"/>
            <line class="st1" x1="186.5" y1="-18.6" x2="53.1" y2="114.8"/>
            <line class="st1" x1="184.5" y1="-18.6" x2="51.1" y2="114.8"/>
            <line class="st1" x1="182.5" y1="-18.6" x2="49.1" y2="114.8"/>
            <line class="st1" x1="180.5" y1="-18.6" x2="47.1" y2="114.8"/>
            <line class="st1" x1="178.5" y1="-18.6" x2="45.1" y2="114.8"/>
            <line class="st1" x1="176.5" y1="-18.6" x2="43.1" y2="114.8"/>
            <line class="st1" x1="174.5" y1="-18.6" x2="41.1" y2="114.8"/>
            <line class="st1" x1="172.5" y1="-18.6" x2="39.1" y2="114.8"/>
            <line class="st1" x1="170.5" y1="-18.6" x2="37.1" y2="114.8"/>
            <line class="st1" x1="168.5" y1="-18.6" x2="35.1" y2="114.8"/>
            <line class="st1" x1="166.5" y1="-18.6" x2="33.1" y2="114.8"/>
            <line class="st1" x1="164.5" y1="-18.6" x2="31.1" y2="114.8"/>
            <line class="st1" x1="162.5" y1="-18.6" x2="29.1" y2="114.8"/>
            <line class="st1" x1="160.5" y1="-18.6" x2="27.1" y2="114.8"/>
            <line class="st1" x1="158.5" y1="-18.6" x2="25.1" y2="114.8"/>
            <line class="st1" x1="156.5" y1="-18.6" x2="23.1" y2="114.8"/>
            <line class="st1" x1="154.5" y1="-18.6" x2="21.1" y2="114.8"/>
            <line class="st1" x1="152.5" y1="-18.6" x2="19.1" y2="114.8"/>
            <line class="st1" x1="150.5" y1="-18.6" x2="17.1" y2="114.8"/>
            <line class="st1" x1="148.5" y1="-18.6" x2="15.1" y2="114.8"/>
            <line class="st1" x1="146.5" y1="-18.6" x2="13.1" y2="114.8"/>
            <line class="st1" x1="144.5" y1="-18.6" x2="11.1" y2="114.8"/>
            <line class="st1" x1="142.5" y1="-18.6" x2="9.1" y2="114.8"/>
            <line class="st1" x1="140.5" y1="-18.6" x2="7.1" y2="114.8"/>
            <line class="st1" x1="138.5" y1="-18.6" x2="5.1" y2="114.8"/>
            <line class="st1" x1="136.5" y1="-18.6" x2="3.1" y2="114.8"/>
            <line class="st1" x1="134.5" y1="-18.6" x2="1.1" y2="114.8"/>
            <line class="st1" x1="132.5" y1="-18.6" x2="-0.9" y2="114.8"/>
            <line class="st1" x1="130.5" y1="-18.6" x2="-2.9" y2="114.8"/>
            <line class="st1" x1="128.5" y1="-18.6" x2="-4.9" y2="114.8"/>
            <line class="st1" x1="126.5" y1="-18.6" x2="-6.9" y2="114.8"/>
            <line class="st1" x1="124.5" y1="-18.6" x2="-8.9" y2="114.8"/>
            <line class="st1" x1="122.5" y1="-18.6" x2="-10.9" y2="114.8"/>
            <line class="st1" x1="120.5" y1="-18.6" x2="-12.9" y2="114.8"/>
            <line class="st1" x1="118.5" y1="-18.6" x2="-14.9" y2="114.8"/>
            <line class="st1" x1="116.5" y1="-18.6" x2="-16.9" y2="114.8"/>
            <line class="st1" x1="114.5" y1="-18.6" x2="-18.9" y2="114.8"/>
            <line class="st1" x1="112.5" y1="-18.6" x2="-20.9" y2="114.8"/>
            <line class="st1" x1="110.5" y1="-18.6" x2="-22.9" y2="114.8"/>
            <line class="st1" x1="108.5" y1="-18.6" x2="-24.9" y2="114.8"/>
            <line class="st1" x1="106.5" y1="-18.6" x2="-26.9" y2="114.8"/>
            <line class="st1" x1="104.5" y1="-18.6" x2="-28.9" y2="114.8"/>
            <line class="st1" x1="102.5" y1="-18.6" x2="-30.9" y2="114.8"/>
            <line class="st1" x1="100.5" y1="-18.6" x2="-32.9" y2="114.8"/>
            <line class="st1" x1="98.5" y1="-18.6" x2="-34.9" y2="114.8"/>
            <line class="st1" x1="96.5" y1="-18.6" x2="-36.9" y2="114.8"/>
            <line class="st1" x1="94.5" y1="-18.6" x2="-38.9" y2="114.8"/>
            <line class="st1" x1="92.5" y1="-18.6" x2="-40.9" y2="114.8"/>
            <line class="st1" x1="90.5" y1="-18.6" x2="-42.9" y2="114.8"/>
            <line class="st1" x1="88.5" y1="-18.6" x2="-44.9" y2="114.8"/>
            <line class="st1" x1="86.5" y1="-18.6" x2="-46.9" y2="114.8"/>
            <line class="st1" x1="84.5" y1="-18.6" x2="-48.9" y2="114.8"/>
            <line class="st1" x1="82.5" y1="-18.6" x2="-50.9" y2="114.8"/>
            <line class="st1" x1="80.5" y1="-18.6" x2="-52.9" y2="114.8"/>
            <line class="st1" x1="78.5" y1="-18.6" x2="-54.9" y2="114.8"/>
            <line class="st1" x1="76.5" y1="-18.6" x2="-56.9" y2="114.8"/>
            <line class="st1" x1="74.5" y1="-18.6" x2="-58.9" y2="114.8"/>
            <line class="st1" x1="72.5" y1="-18.6" x2="-60.9" y2="114.8"/>
            <line class="st1" x1="70.5" y1="-18.6" x2="-62.9" y2="114.8"/>
            <line class="st1" x1="68.5" y1="-18.6" x2="-64.9" y2="114.8"/>
            <line class="st1" x1="66.5" y1="-18.6" x2="-66.9" y2="114.8"/>
            <line class="st1" x1="64.5" y1="-18.6" x2="-68.9" y2="114.8"/>
            <line class="st1" x1="62.5" y1="-18.6" x2="-70.9" y2="114.8"/>
            <line class="st1" x1="60.5" y1="-18.6" x2="-72.9" y2="114.8"/>
            <line class="st1" x1="58.5" y1="-18.6" x2="-74.9" y2="114.8"/>
            <line class="st1" x1="56.5" y1="-18.6" x2="-76.9" y2="114.8"/>
            <line class="st1" x1="54.5" y1="-18.6" x2="-78.9" y2="114.8"/>
            <line class="st1" x1="52.5" y1="-18.6" x2="-80.9" y2="114.8"/>
            <line class="st1" x1="50.5" y1="-18.6" x2="-82.9" y2="114.8"/>
            <line class="st1" x1="48.5" y1="-18.6" x2="-84.9" y2="114.8"/>
            <line class="st1" x1="46.5" y1="-18.6" x2="-86.9" y2="114.8"/>
            <line class="st1" x1="44.5" y1="-18.6" x2="-88.9" y2="114.8"/>
            <line class="st1" x1="42.5" y1="-18.6" x2="-90.9" y2="114.8"/>
            <line class="st1" x1="40.5" y1="-18.6" x2="-92.9" y2="114.8"/>
            <line class="st1" x1="38.5" y1="-18.6" x2="-94.9" y2="114.8"/>
            <line class="st1" x1="36.5" y1="-18.6" x2="-96.9" y2="114.8"/>
            <line class="st1" x1="34.5" y1="-18.6" x2="-98.9" y2="114.8"/>
            <line class="st1" x1="32.5" y1="-18.6" x2="-100.9" y2="114.8"/>
            <line class="st1" x1="30.5" y1="-18.6" x2="-102.9" y2="114.8"/>
            <line class="st1" x1="28.5" y1="-18.6" x2="-104.9" y2="114.8"/>
            <line class="st1" x1="26.5" y1="-18.6" x2="-106.9" y2="114.8"/>
            <line class="st1" x1="24.5" y1="-18.6" x2="-108.9" y2="114.8"/>
            <line class="st1" x1="22.5" y1="-18.6" x2="-110.9" y2="114.8"/>
            <line class="st1" x1="20.5" y1="-18.6" x2="-112.9" y2="114.8"/>
            <line class="st1" x1="18.5" y1="-18.6" x2="-114.9" y2="114.8"/>
        </g>
    </g>
</svg>