<?xml version="1.0" encoding="utf-8"?>
<svg version="1.1" id="Layer_1"
    xmlns="http://www.w3.org/2000/svg"
    xmlns:xlink="http://www.w3.org/1999/xlink" x="0px" y="0px" viewBox="0 0 100 100" style="enable-background:new 0 0 100 100;" xml:space="preserve">
    <style type="text/css">.st0{clip-path:url(#SVGID_00000013169228586498216360000007993055831654855355_)}.st1{fill:none;stroke:#D9C291;stroke-width:0.2;stroke-miterlimit:10}</style>
    <g>
        <defs>
            <rect id="SVGID_1_" width="100" height="100"/>
        </defs>
        <clipPath id="SVGID_00000180337660294575326600000005058501356573977747_">
            <use xlink:href="#SVGID_1_" style="overflow:visible;"/>
        </clipPath>
        <g style="clip-path:url(#SVGID_00000180337660294575326600000005058501356573977747_);">
            <line class="st1" x1="225.3" y1="-25.3" x2="95.5" y2="104.5"/>
            <line class="st1" x1="221.3" y1="-25.3" x2="91.5" y2="104.5"/>
            <line class="st1" x1="217.3" y1="-25.3" x2="87.5" y2="104.5"/>
            <line class="st1" x1="213.3" y1="-25.3" x2="83.5" y2="104.5"/>
            <line class="st1" x1="209.3" y1="-25.3" x2="79.5" y2="104.5"/>
            <line class="st1" x1="205.3" y1="-25.3" x2="75.5" y2="104.5"/>
            <line class="st1" x1="201.3" y1="-25.3" x2="71.5" y2="104.5"/>
            <line class="st1" x1="197.3" y1="-25.3" x2="67.5" y2="104.5"/>
            <line class="st1" x1="193.3" y1="-25.3" x2="63.5" y2="104.5"/>
            <line class="st1" x1="189.3" y1="-25.3" x2="59.5" y2="104.5"/>
            <line class="st1" x1="185.3" y1="-25.3" x2="55.5" y2="104.5"/>
            <line class="st1" x1="181.3" y1="-25.3" x2="51.5" y2="104.5"/>
            <line class="st1" x1="177.3" y1="-25.3" x2="47.5" y2="104.5"/>
            <line class="st1" x1="173.3" y1="-25.3" x2="43.5" y2="104.5"/>
            <line class="st1" x1="169.3" y1="-25.3" x2="39.5" y2="104.5"/>
            <line class="st1" x1="165.3" y1="-25.3" x2="35.5" y2="104.5"/>
            <line class="st1" x1="161.3" y1="-25.3" x2="31.5" y2="104.5"/>
            <line class="st1" x1="157.3" y1="-25.3" x2="27.5" y2="104.5"/>
            <line class="st1" x1="153.3" y1="-25.3" x2="23.5" y2="104.5"/>
            <line class="st1" x1="149.3" y1="-25.3" x2="19.5" y2="104.5"/>
            <line class="st1" x1="145.3" y1="-25.3" x2="15.5" y2="104.5"/>
            <line class="st1" x1="141.3" y1="-25.3" x2="11.5" y2="104.5"/>
            <line class="st1" x1="137.3" y1="-25.3" x2="7.5" y2="104.5"/>
            <line class="st1" x1="133.3" y1="-25.3" x2="3.5" y2="104.5"/>
            <line class="st1" x1="129.3" y1="-25.3" x2="-0.5" y2="104.5"/>
            <line class="st1" x1="125.3" y1="-25.3" x2="-4.5" y2="104.5"/>
            <line class="st1" x1="121.3" y1="-25.3" x2="-8.5" y2="104.5"/>
            <line class="st1" x1="117.3" y1="-25.3" x2="-12.5" y2="104.5"/>
            <line class="st1" x1="113.3" y1="-25.3" x2="-16.5" y2="104.5"/>
            <line class="st1" x1="109.3" y1="-25.3" x2="-20.5" y2="104.5"/>
            <line class="st1" x1="105.3" y1="-25.3" x2="-24.5" y2="104.5"/>
            <line class="st1" x1="101.3" y1="-25.3" x2="-28.5" y2="104.5"/>
            <line class="st1" x1="97.3" y1="-25.3" x2="-32.5" y2="104.5"/>
            <line class="st1" x1="93.3" y1="-25.3" x2="-36.5" y2="104.5"/>
            <line class="st1" x1="89.3" y1="-25.3" x2="-40.5" y2="104.5"/>
            <line class="st1" x1="85.3" y1="-25.3" x2="-44.5" y2="104.5"/>
            <line class="st1" x1="81.3" y1="-25.3" x2="-48.5" y2="104.5"/>
            <line class="st1" x1="77.3" y1="-25.3" x2="-52.5" y2="104.5"/>
            <line class="st1" x1="73.3" y1="-25.3" x2="-56.5" y2="104.5"/>
            <line class="st1" x1="69.3" y1="-25.3" x2="-60.5" y2="104.5"/>
            <line class="st1" x1="65.3" y1="-25.3" x2="-64.5" y2="104.5"/>
            <line class="st1" x1="61.3" y1="-25.3" x2="-68.5" y2="104.5"/>
            <line class="st1" x1="57.3" y1="-25.3" x2="-72.5" y2="104.5"/>
            <line class="st1" x1="53.3" y1="-25.3" x2="-76.5" y2="104.5"/>
            <line class="st1" x1="49.3" y1="-25.3" x2="-80.5" y2="104.5"/>
            <line class="st1" x1="45.3" y1="-25.3" x2="-84.5" y2="104.5"/>
            <line class="st1" x1="41.3" y1="-25.3" x2="-88.5" y2="104.5"/>
            <line class="st1" x1="37.3" y1="-25.3" x2="-92.5" y2="104.5"/>
            <line class="st1" x1="33.3" y1="-25.3" x2="-96.5" y2="104.5"/>
            <line class="st1" x1="29.3" y1="-25.3" x2="-100.5" y2="104.5"/>
            <line class="st1" x1="25.3" y1="-25.3" x2="-104.5" y2="104.5"/>
        </g>
    </g>
</svg>