<svg xmlns="http://www.w3.org/2000/svg" viewBox="0 0 465 464">
    <defs>
        <style>
            .cls-1 {
                fill: #495363;
            }
        </style>
    </defs>
    <g id="arrow">
        <path id="tail" class="cls-1"
            d="M198,232l.05,0h-.1c-32-12-76.76-41.54-98.74-84.5-18,41-62,75.45-99,84.5H0l.07,0L0,232H.15c37,9,81,43.55,99,84.5,22-43,66.75-72.48,98.74-84.5h.1Z" />
        <path id="head" class="cls-1"
            d="M229,0S168,50,123,81h0c46,80,85,119,144.41,151C208,264,169,303,123,383h0c45,31,106,81,106,81,32-152,136-194,236-232C365,194,261,152,229,0Z" />
    </g>
</svg>