<svg xmlns="http://www.w3.org/2000/svg" viewBox="0 0 393.97 243"><defs><style>.cls-1{fill:#bfab80;}</style></defs><g id="Layer_2" data-name="Layer 2"><g id="Layer_1-2" data-name="Layer 1"><polygon class="cls-1" points="390.68 234.92 388.98 231 387.29 234.92 384 237 387.29 239.08 388.98 243 390.68 239.08 393.97 237 390.68 234.92"/><polygon class="cls-1" points="6.68 234.92 4.98 231 3.29 234.92 0 237 3.29 239.08 4.98 243 6.68 239.08 9.97 237 6.68 234.92"/><polygon class="cls-1" points="390.68 3.92 388.98 0 387.29 3.92 384 6 387.29 8.08 388.98 12 390.68 8.08 393.97 6 390.68 3.92"/><polygon class="cls-1" points="6.68 3.92 4.98 0 3.29 3.92 0 6 3.29 8.08 4.98 12 6.68 8.08 9.97 6 6.68 3.92"/><path class="cls-1" d="M372.1,8A17,17,0,0,0,387,22.88V220.12A17,17,0,0,0,372.1,235H21.87A17,17,0,0,0,7,220.12V22.88A17,17,0,0,0,21.87,8H372.1M374,6H20A15,15,0,0,1,5,21V222a15,15,0,0,1,15,15H374a15,15,0,0,1,15-15V21A15,15,0,0,1,374,6Z"/></g></g></svg>