<svg xmlns="http://www.w3.org/2000/svg" viewBox="0 0 99.4 422.17"><g id="Layer_2" data-name="Layer 2"><g id="Layer_1-2" data-name="Layer 1"><path d="M0,290.73q.62,38.86,1.18,77.74c.08,5.06,1.72,9.39,6.5,11.92A2.65,2.65,0,0,1,9,382.88c.32,3.9,1,4.72,4.83,5.52a18.37,18.37,0,0,1,5.68,2c2.55,1.52,4.19,3.28,4.44,6.66.51,6.86,4,12,10.21,15.35a79.57,79.57,0,0,1,13.66,8.77,2.94,2.94,0,0,0,4.39-.06,59,59,0,0,1,13.37-8.66c6.3-3,10.09-8.16,10.51-15.07.28-4.6,3.07-6.34,6.45-7.93a10.73,10.73,0,0,1,3.71-1c3.21-.23,4.5-2.24,4.85-5a4.7,4.7,0,0,1,2.35-3.7c4-2.7,5.27-6.87,5.32-11.5.15-13.42.37-26.83.43-40.25.31-71.61.15-143.21,0-214.81,0-19.67-.33-39.33-.38-59,0-5.43-1.4-10-6.36-12.85-1.15-.66-1.13-1.78-1.27-2.87-.34-2.83-1.54-4.77-4.72-5.12a14,14,0,0,1-6-2C78,29.83,76.28,28.14,76,24.72A17.46,17.46,0,0,0,65.93,9.64C61.07,7.22,56.28,4.71,52.23,1c-1.58-1.44-2.91-1.33-4.55.06a64.44,64.44,0,0,1-13.5,8.48c-5.86,2.9-9,7.89-10.09,14.28-1,5.73-4,8.63-9.82,9.54C10.37,34,9.41,35,9.09,39a2.74,2.74,0,0,1-1.35,2.51c-4.81,2.66-6.43,7-6.48,12.22Q.89,92.08.49,130.4C.38,140,.17,149.51,0,159.07"/></g></g></svg>