<?xml version="1.0" encoding="utf-8"?><svg version="1.1" id="Cryo" xmlns="http://www.w3.org/2000/svg" xmlns:xlink="http://www.w3.org/1999/xlink" x="0px" y="0px" viewBox="0 0 314.1 314.1" style="enable-background:new 0 0 314.1 314.1;" xml:space="preserve"><style type="text/css">.st0{fill:url(#SVGID_1_)}.st1{fill:url(#SVGID_00000142136038392429953340000005971224841979683715_)}.st2{fill:url(#SVGID_00000075851450857555831230000011903058274728713360_)}.st3{fill:url(#SVGID_00000164502546767576169270000013828691049320870816_)}.st4{fill:url(#SVGID_00000043456003292119811720000003456053408968770999_)}.st5{fill:url(#SVGID_00000155860188699725705070000003681620737696103553_)}.st6{fill:url(#SVGID_00000142891180732693825850000006767198357508798872_)}.st7{fill:url(#SVGID_00000028303480580233296990000001324576617495847058_)}.st8{fill:url(#SVGID_00000064355068092991956940000009747537949495749766_)}.st9{fill:url(#SVGID_00000140012084702921098390000016727549678092012204_)}.st10{fill:url(#SVGID_00000114074375156742116660000016099537602549696130_)}.st11{fill:url(#SVGID_00000079466972976297497020000013741837904759006338_)}.st12{fill:url(#SVGID_00000094593560042876929490000015371850186775385517_)}.st13{fill:none}</style><g id="Livello"><linearGradient id="SVGID_1_" gradientUnits="userSpaceOnUse" x1="157.18" y1="11.84" x2="157.18" y2="139.15"><stop offset="0" style="stop-color:#A3D2E6"/><stop offset="1" style="stop-color:#5C8E9C"/></linearGradient><path class="st0" d="M157.2,11.8c0,0-24.1,53.9-39,69.8c0.3-0.1,5.3-2,11.6-5.2c5.7,8,27.3,39.9,27.3,62.7c0-22.8,21.6-54.7,27.3-62.7c6.4,3.1,11.3,5,11.6,5.2C181.3,65.7,157.2,11.8,157.2,11.8z M157.2,117.4c-0.5-17.1-5.2-33.8-13.5-48.7c5.9-3.9,11.2-8.3,13.5-12.9c2.3,4.6,7.6,9,13.5,12.9C162.4,83.6,157.8,100.3,157.2,117.4z"/><linearGradient id="SVGID_00000031900821617160127010000001890371519604460465_" gradientUnits="userSpaceOnUse" x1="227.765" y1="84.59" x2="227.765" y2="153.21"><stop offset="0" style="stop-color:#A3D2E6"/><stop offset="1" style="stop-color:#5C8E9C"/></linearGradient><path style="fill:url(#SVGID_00000031900821617160127010000001890371519604460465_);" d="M282.9,84.6c0,0-58.7,6.1-79.9,1.2c0.2,0.2,4.4,3.6,10.3,7.5c-4.1,8.9-20.9,43.6-40.6,55c19.7-11.4,58.2-8.6,68-7.7c0.5,7.1,1.3,12.3,1.4,12.7C248.3,132.4,282.9,84.6,282.9,84.6z M191.4,137.4c14.5-9,26.7-21.3,35.4-36c6.3,3.2,12.8,5.5,17.9,5.2c-2.8,4.3-4,11.1-4.4,18.2C213.6,124.8,192.7,136.6,191.4,137.4z"/><linearGradient id="SVGID_00000096782029160705456710000008930758951896333980_" gradientUnits="userSpaceOnUse" x1="227.555" y1="161.17" x2="227.555" y2="229.8"><stop offset="0" style="stop-color:#A3D2E6"/><stop offset="1" style="stop-color:#5C8E9C"/></linearGradient><path style="fill:url(#SVGID_00000096782029160705456710000008930758951896333980_);" d="M282.7,229.8c0,0-34.6-47.8-40.9-68.6c-0.1,0.3-0.9,5.6-1.4,12.7c-9.7,0.9-48.2,3.7-68-7.7c19.7,11.4,36.6,46.1,40.6,55c-5.9,3.9-10,7.3-10.3,7.5C224,223.7,282.7,229.8,282.7,229.8z M191.3,177c15.1,8.1,31.8,12.4,48.9,12.6c0.4,7.1,1.6,13.9,4.4,18.2c-5.1-0.3-11.6,2-17.9,5.2C217.9,198.4,205.8,186,191.3,177z"/><linearGradient id="SVGID_00000114073461084814334330000002384403641031653531_" gradientUnits="userSpaceOnUse" x1="156.91" y1="174.93" x2="156.91" y2="302.24"><stop offset="0" style="stop-color:#A3D2E6"/><stop offset="1" style="stop-color:#5C8E9C"/></linearGradient><path style="fill:url(#SVGID_00000114073461084814334330000002384403641031653531_);" d="M156.9,302.2c0,0,24.1-53.9,39-69.8c-0.3,0.1-5.3,2.1-11.6,5.2c-5.7-8-27.3-39.9-27.3-62.7c0,22.8-21.6,54.7-27.3,62.7c-6.3-3.1-11.3-5-11.6-5.2C132.8,248.4,156.9,302.2,156.9,302.2z M156.9,196.7c0.5,17.1,5.2,33.8,13.5,48.7c-5.9,3.9-11.2,8.3-13.5,12.9c-2.3-4.6-7.6-9-13.5-12.9C151.7,230.4,156.3,213.7,156.9,196.7L156.9,196.7z"/><linearGradient id="SVGID_00000010275387009098364610000006049397955593942443_" gradientUnits="userSpaceOnUse" x1="86.335" y1="160.88" x2="86.335" y2="229.49"><stop offset="0" style="stop-color:#A3D2E6"/><stop offset="1" style="stop-color:#5C8E9C"/></linearGradient><path style="fill:url(#SVGID_00000010275387009098364610000006049397955593942443_);" d="M31.2,229.5c0,0,58.7-6.1,79.9-1.1c-0.2-0.2-4.4-3.6-10.3-7.5c4.1-8.9,20.9-43.6,40.6-55c-19.7,11.4-58.2,8.6-68,7.7c-0.5-7.1-1.3-12.3-1.3-12.7C65.8,181.7,31.2,229.5,31.2,229.5z M122.6,176.7c-14.5,9-26.7,21.4-35.4,36.1c-6.3-3.2-12.8-5.5-17.9-5.2c2.8-4.3,4-11.1,4.4-18.1C90.8,189.1,107.6,184.8,122.6,176.7L122.6,176.7z"/><linearGradient id="SVGID_00000168822401192914142670000009057501841203856824_" gradientUnits="userSpaceOnUse" x1="86.555" y1="84.29" x2="86.555" y2="152.92"><stop offset="0" style="stop-color:#A3D2E6"/><stop offset="1" style="stop-color:#5C8E9C"/></linearGradient><path style="fill:url(#SVGID_00000168822401192914142670000009057501841203856824_);" d="M31.4,84.3c0,0,34.6,47.8,41,68.6c0.1-0.3,0.9-5.6,1.3-12.7c9.7-0.9,48.2-3.7,68,7.7c-19.7-11.4-36.6-46.1-40.6-55c5.9-4,10-7.3,10.3-7.5C90.1,90.3,31.4,84.3,31.4,84.3z M122.8,137.1c-15.1-8.1-31.8-12.4-48.9-12.7c-0.4-7.1-1.6-13.9-4.4-18.2c5.1,0.3,11.6-2,17.9-5.2C96.1,115.7,108.3,128.1,122.8,137.1z"/><linearGradient id="SVGID_00000068647421908075672440000018217043062739205513_" gradientUnits="userSpaceOnUse" x1="157.22" y1="152.4" x2="157.22" y2="163.7"><stop offset="0" style="stop-color:#A3D2E6"/><stop offset="1" style="stop-color:#5C8E9C"/></linearGradient><circle style="fill:url(#SVGID_00000068647421908075672440000018217043062739205513_);" cx="157.2" cy="158.1" r="5.6"/><linearGradient id="SVGID_00000120519068243430923650000017782152150037172150_" gradientUnits="userSpaceOnUse" x1="145.295" y1="119.8268" x2="145.295" y2="155.62"><stop offset="0" style="stop-color:#A3D2E6"/><stop offset="1" style="stop-color:#5C8E9C"/></linearGradient><path style="fill:url(#SVGID_00000120519068243430923650000017782152150037172150_);" d="M153.9,138l2,17.6l-14.3-10.5c-3.8-2.8-6.2-7.2-6.4-12l-0.4-12.4c0-0.6,0.5-1,1.1-0.9c0.1,0,0.3,0,0.4,0.1l10.5,6.6C150.7,129,153.3,133.3,153.9,138z"/><linearGradient id="SVGID_00000048462276928700884820000010511582864740016005_" gradientUnits="userSpaceOnUse" x1="169.1902" y1="119.7518" x2="169.1902" y2="155.59"><stop offset="0" style="stop-color:#A3D2E6"/><stop offset="1" style="stop-color:#5C8E9C"/></linearGradient><path style="fill:url(#SVGID_00000048462276928700884820000010511582864740016005_);" d="M172.9,145.1l-14.3,10.5l1.9-17.6c0.5-4.8,3.2-9,7.2-11.6l10.5-6.6c0.4-0.3,1-0.1,1.3,0.3c0.1,0.2,0.1,0.3,0.1,0.5l-0.4,12.4C179.1,137.8,176.8,142.3,172.9,145.1z"/><linearGradient id="SVGID_00000052826447725140898070000015298397792846116533_" gradientUnits="userSpaceOnUse" x1="180.6945" y1="149.6001" x2="180.6945" y2="166.4965"><stop offset="0" style="stop-color:#A3D2E6"/><stop offset="1" style="stop-color:#5C8E9C"/></linearGradient><path style="fill:url(#SVGID_00000052826447725140898070000015298397792846116533_);" d="M176.3,165.2l-16.2-7.1l16.2-7.1c4.4-1.9,9.4-1.7,13.6,0.5l10.9,5.8c0.5,0.2,0.6,0.8,0.4,1.3c-0.1,0.2-0.2,0.3-0.4,0.4l-10.9,5.8C185.7,166.9,180.7,167.1,176.3,165.2z"/><linearGradient id="SVGID_00000153662833919717578010000001578008837397263521_" gradientUnits="userSpaceOnUse" x1="169.1906" y1="160.51" x2="169.1906" y2="196.3766"><stop offset="0" style="stop-color:#A3D2E6"/><stop offset="1" style="stop-color:#5C8E9C"/></linearGradient><path style="fill:url(#SVGID_00000153662833919717578010000001578008837397263521_);" d="M160.6,178.1l-1.9-17.6l14.3,10.5c3.9,2.8,6.2,7.3,6.4,12.1l0.4,12.4c0,0.5-0.4,0.9-0.9,1c-0.2,0-0.4,0-0.5-0.1l-10.5-6.6C163.8,187.1,161.1,182.9,160.6,178.1z"/><linearGradient id="SVGID_00000125566701742454489220000015969532062017662636_" gradientUnits="userSpaceOnUse" x1="145.2197" y1="160.51" x2="145.2197" y2="196.3745"><stop offset="0" style="stop-color:#A3D2E6"/><stop offset="1" style="stop-color:#5C8E9C"/></linearGradient><path style="fill:url(#SVGID_00000125566701742454489220000015969532062017662636_);" d="M141.5,171l14.3-10.5l-2,17.6c-0.5,4.8-3.2,9-7.2,11.5l-10.5,6.6c-0.4,0.3-1,0.1-1.3-0.3c-0.1-0.2-0.2-0.3-0.1-0.5l0.4-12.4C135.3,178.3,137.6,173.8,141.5,171z"/><linearGradient id="SVGID_00000130605335002107583810000000658611692817957531_" gradientUnits="userSpaceOnUse" x1="133.7455" y1="149.6002" x2="133.7455" y2="166.4965"><stop offset="0" style="stop-color:#A3D2E6"/><stop offset="1" style="stop-color:#5C8E9C"/></linearGradient><path style="fill:url(#SVGID_00000130605335002107583810000000658611692817957531_);" d="M138.1,150.9l16.2,7.1l-16.2,7.1c-4.4,1.9-9.4,1.7-13.6-0.5l-10.9-5.8c-0.5-0.2-0.6-0.8-0.4-1.3c0.1-0.2,0.2-0.3,0.4-0.4l10.9-5.8C128.8,149.2,133.8,149,138.1,150.9z"/><rect class="st13" width="314.1" height="314.1"/></g></svg>