<?xml version="1.0" encoding="utf-8"?><svg version="1.1" id="Hydro" xmlns="http://www.w3.org/2000/svg" xmlns:xlink="http://www.w3.org/1999/xlink" x="0px" y="0px" viewBox="0 0 314.1 314.1" style="enable-background:new 0 0 314.1 314.1;" xml:space="preserve"><style type="text/css">.st0{fill:url(#SVGID_1_)}.st1{fill:url(#SVGID_00000079468994811993095190000017146566380433222562_)}.st2{fill:url(#SVGID_00000049910188518522377350000012465617421646838185_)}.st3{fill:url(#SVGID_00000110470241778251958420000007932960404430046635_)}.st4{fill:url(#SVGID_00000003096802329787878160000008541124816437262263_)}.st5{fill:url(#SVGID_00000036948983967872387260000018144821778466142336_)}.st6{fill:url(#SVGID_00000130636316220123114220000000788108159589545654_)}.st7{fill:none}</style><g id="Livello"><linearGradient id="SVGID_1_" gradientUnits="userSpaceOnUse" x1="137.52" y1="273.95" x2="137.52" y2="280.0368"><stop offset="0" style="stop-color:#7EB6DE"/><stop offset="1" style="stop-color:#5F6999"/></linearGradient><path class="st0" d="M156.6,280c-15.5,0.4-28.1-2.2-38.2-6C130.8,278,143.6,280,156.6,280z"/><linearGradient id="SVGID_00000142176293854502679950000003552586044948413090_" gradientUnits="userSpaceOnUse" x1="156.1573" y1="171.81" x2="156.1573" y2="260.17"><stop offset="0" style="stop-color:#7EB6DE"/><stop offset="1" style="stop-color:#5F6999"/></linearGradient><path style="fill:url(#SVGID_00000142176293854502679950000003552586044948413090_);" d="M127.4,225L127.4,225c0,2.5,0.6,5,1.8,7.3c3.9,8,10.5,14.4,18.6,18.1l0,0c4.8,2.2,10,3.3,15.3,3.2c19.5,0,28.3-12.4,29.4-17.5c-1.4,7.5-12.7,24-35.9,24c-24.4,0-44.2-19.8-44.2-44.2s19.8-44.2,44.2-44.2c19.8,0,37.2,13.1,42.5,32.2c0.1,0.3,0.2,0.5,0.2,0.8s0.1,0.4,0.2,0.6c0.1,0.7,0.2,1.3,0.3,2l0,0v0.1c0.7,8-4.3,15.5-12.1,17.8c-2.7,0.8-5.5,0.9-8.2,0.4c-6.7-1.3-12-6.5-13.4-13.2c-0.1-0.5-0.2-1-0.2-1.5c-1.5-6.9-7.6-11.9-14.7-11.9c-0.8,0-1.5,0.1-2.3,0.2c-0.5,0.1-1,0.2-1.5,0.3C135.7,202.4,127.4,212.9,127.4,225z"/><linearGradient id="SVGID_00000079444074060411960390000004888646567534548655_" gradientUnits="userSpaceOnUse" x1="48.5" y1="97.24" x2="48.5" y2="99.61"><stop offset="0" style="stop-color:#7EB6DE"/><stop offset="1" style="stop-color:#5F6999"/></linearGradient><path style="fill:url(#SVGID_00000079444074060411960390000004888646567534548655_);" d="M49.1,97.2c-0.4,0.8-0.9,1.6-1.3,2.4C48.2,98.8,48.6,98,49.1,97.2z"/><linearGradient id="SVGID_00000152261457870747602520000001773233858010067388_" gradientUnits="userSpaceOnUse" x1="50.8183" y1="142.6785" x2="50.8183" y2="175.3053"><stop offset="0" style="stop-color:#7EB6DE"/><stop offset="1" style="stop-color:#5F6999"/></linearGradient><path style="fill:url(#SVGID_00000152261457870747602520000001773233858010067388_);" d="M67.1,159c0,6.1-3.4,11.7-8.8,14.5l0,0c-8,4.1-17.8,1-22-7s-1-17.8,7-22s17.8-1,22,7C66.5,153.8,67.1,156.4,67.1,159z"/><linearGradient id="SVGID_00000147177743522406848900000010418357250963027881_" gradientUnits="userSpaceOnUse" x1="73.1733" y1="200.7796" x2="73.1733" y2="224.6401"><stop offset="0" style="stop-color:#7EB6DE"/><stop offset="1" style="stop-color:#5F6999"/></linearGradient><path style="fill:url(#SVGID_00000147177743522406848900000010418357250963027881_);" d="M85.1,212.7c0,4.7-2.8,9-7.1,10.9c-1.4,0.6-2.9,1-4.5,1h-0.3c-6.6,0-12-5.3-12-11.9c0-5.9,4.2-10.9,10-11.8c0.7-0.1,1.3-0.2,2-0.2C79.8,200.8,85.1,206.1,85.1,212.7z"/><linearGradient id="SVGID_00000103263893064420461400000001159481027299498880_" gradientUnits="userSpaceOnUse" x1="163.051" y1="34.0836" x2="163.051" y2="279.9901"><stop offset="0" style="stop-color:#7EB6DE"/><stop offset="1" style="stop-color:#5F6999"/></linearGradient><path style="fill:url(#SVGID_00000103263893064420461400000001159481027299498880_);" d="M279.6,155.7c0.7,68-55,124.3-123,124.3c-13,0-25.9-2-38.2-6c-23.5-9-33-24.7-33.3-25.2c9.8,7.1,20.6,12.5,32.1,16c1.2,0.4,2.3,0.7,3.4,1l0,0c11.7,3.3,23.8,4.9,35.9,4.7c1.3,0,2.7,0,4-0.1c23.7-0.9,45.2-14.7,55.1-36.2c4.6-10.1,6.7-21.1,6.1-32.1c-1.9-36.2-32.4-64.9-68.7-64.6c-6,0-11.9,0.8-17.6,2.4l-0.3,0.1c-1.4,0.3-2.7,0.5-4.1,0.5c-9.3,0-16.8-7.5-16.9-16.8c0-6.6,3.8-12.6,9.9-15.4h0.1l0.2-0.1h0.1l0.3-0.1l0.8-0.3l0,0c44.4-16.9,94.2,5.4,111.1,49.8c12.7,33.3,3.5,71.1-23.1,94.8c26.1-18.6,41.5-48.8,41.2-80.8c-0.4-53.4-44.1-97.1-97.4-97.5c-32-0.3-62.1,15-80.7,41c-0.3,0.5-0.7,0.9-1,1.4c-5.6,7.1-15.9,8.3-23,2.6c-5.8-4.6-7.8-12.5-4.9-19.3c0.4-0.8,0.8-1.6,1.3-2.4c33.1-59.3,108-80.6,167.3-47.6C255,71.1,279.1,111.6,279.6,155.7z"/><linearGradient id="SVGID_00000075159930158838628400000005847097726873997456_" gradientUnits="userSpaceOnUse" x1="137.52" y1="273.95" x2="137.52" y2="280.0368"><stop offset="0" style="stop-color:#7EB6DE"/><stop offset="1" style="stop-color:#5F6999"/></linearGradient><path style="fill:url(#SVGID_00000075159930158838628400000005847097726873997456_);" d="M156.6,280c-15.5,0.4-28.1-2.2-38.2-6C130.8,278,143.6,280,156.6,280z"/><rect class="st7" width="314.1" height="314.1"/></g></svg>