<?xml version="1.0" encoding="utf-8"?><svg version="1.1" id="Pyro" xmlns="http://www.w3.org/2000/svg" xmlns:xlink="http://www.w3.org/1999/xlink" x="0px" y="0px" viewBox="0 0 314.1 314.1" style="enable-background:new 0 0 314.1 314.1;" xml:space="preserve"><style type="text/css">.st0{fill:url(#SVGID_1_)}.st1{fill:url(#SVGID_00000033328956476650293720000004905279643248174501_)}.st2{fill:none}</style><g id="Livello"><linearGradient id="SVGID_1_" gradientUnits="userSpaceOnUse" x1="157.0441" y1="18.06" x2="157.0441" y2="296.06"><stop offset="0" style="stop-color:#F2D09D"/><stop offset="1" style="stop-color:#A3615A"/></linearGradient><path class="st0" d="M154.8,18.1c0,0,0,22.3-13,38.9s-23.9,26.6-23.9,43.9s12.6,30.9,46.6,44.9s51.6,34.6,51.6,53.9s-13.6,45.9-58.7,45.6c-44.5-7-22.8-44.9-10.8-48.9c0,0-34.5-2.9-34.5,21.7s32.5,32.5,51.7,32.5s77.6-11.3,77.6-61.2c0-19.6-7.6-30.6-7.6-30.6s29,11.2,25.6,39.6c-4.3,35.9-56.2,38.4-99.8,79.8c0,0-11.6-13.6-51.5-33.3c-22.8-11.3-50.3-20.9-49.5-54.5c0.6-27.9,30.3-39.3,30.3-39.3s-49.9,51.2,21.6,85.1c0,0-46.2-71.8,44.9-87.4c0,0-49.5-12.6-51.5-55.2c0,0-8.3,23.9-20.3,36.6s-41.8,42.4-37.8,75.9s82.4,52.4,113.6,90c0,0,25.3-26.3,50.9-38.6s111-51.9,13-126.7c0,0-15-10-16.3-37.6c-8.5,9.2-13.2,21.1-13.3,33.6c0,20.6,14.7,17,16.3,36.2c0,0-28.9-24.6-28.6-43.9s7.6-39.9,7.6-39.9s-50.2,22.9-25.3,59.2c0,0-18.3-7.3-14.3-31.9S207.3,81.2,154.8,18.1z"/><linearGradient id="SVGID_00000182523464238981151160000003820881561827231142_" gradientUnits="userSpaceOnUse" x1="160.335" y1="162.7935" x2="160.335" y2="227"><stop offset="0" style="stop-color:#F2D09D"/><stop offset="1" style="stop-color:#A3615A"/></linearGradient><path style="fill:url(#SVGID_00000182523464238981151160000003820881561827231142_);" d="M169.9,227c0,0,27.4-8.6,27.4-30s-40.7-59.3-74.1-10c0,0,31.7-15.5,45.6,5S169.9,227,169.9,227z"/><rect class="st2" width="314.1" height="314.1"/></g></svg>