<?xml version="1.0" encoding="utf-8"?><svg version="1.1" id="Dendro" xmlns="http://www.w3.org/2000/svg" xmlns:xlink="http://www.w3.org/1999/xlink" x="0px" y="0px" viewBox="0 0 314.1 314.1" style="enable-background:new 0 0 314.1 314.1;" xml:space="preserve"><style type="text/css">.st0{fill:url(#SVGID_1_)}.st1{fill:url(#SVGID_00000178907302961736333160000005454529825402823332_)}.st2{fill:url(#SVGID_00000022557549816762229220000001659073231156816010_)}.st3{fill:url(#SVGID_00000159441750058550170660000006752958785107134624_)}.st4{fill:url(#SVGID_00000135682607279706486140000015263490862226335162_)}.st5{fill:url(#SVGID_00000052073772671123178170000018066120457805464461_)}.st6{fill:url(#SVGID_00000171694443701491021160000016180296331304992434_)}.st7{fill:url(#SVGID_00000077309682977622467520000007590678423774336387_)}.st8{fill:url(#SVGID_00000132782180325000750810000012663758817587909036_)}.st9{fill:url(#SVGID_00000132058061116715916860000006159144583892324785_)}.st10{fill:none}</style><g id="Livello"><linearGradient id="SVGID_1_" gradientUnits="userSpaceOnUse" x1="157.045" y1="22.65" x2="157.045" y2="96.1"><stop offset="0" style="stop-color:#A5C83B"/><stop offset="1" style="stop-color:#7A855B"/></linearGradient><path class="st0" d="M172.2,78.4l-15.2,17.7l-15.2-17.7c-6.9-8-7.7-19.5-2.1-28.4l17.3-27.4L174.3,50C179.9,58.9,179.1,70.4,172.2,78.4z"/><linearGradient id="SVGID_00000163787180670363369740000016805672543438903437_" gradientUnits="userSpaceOnUse" x1="157.06" y1="83.96" x2="157.06" y2="291.48"><stop offset="0" style="stop-color:#A5C83B"/><stop offset="1" style="stop-color:#7A855B"/></linearGradient><path style="fill:url(#SVGID_00000163787180670363369740000016805672543438903437_);" d="M268.1,172.7l-0.8,0.6l0.6,0.5c-6.9,39.2-38.2,56.4-56,64.9c-20.1,9.6-54.9,29.4-54.9,52.8c0-23.3-34.8-43.1-54.9-52.8c-17.8-8.5-49.1-25.7-56-64.9l0.6-0.5l-0.8-0.6c-0.8-5.1-1.2-10.2-1.2-15.3c0-51,40.5-73.4,65.9-73.4c19.1,0,33,11.4,38.6,17.1c1.7,1.7,2,4.3,0.6,6.3l-4.1,6.2c-0.7,1.1-2.2,1.4-3.3,0.7c-0.2-0.1-0.4-0.3-0.6-0.5c-5.3-6.7-21.2-22.1-48.9-11.8c-20.7,7.8-33.7,27-33.7,50s14.2,56.4,51.4,70.2s46.3,36.1,46.3,36.1s9.1-22.3,46.3-36.1s51.4-47.2,51.4-70.2s-13-42.2-33.7-49.9c-27.7-10.4-43.6,5.1-48.9,11.8c-0.8,1-2.3,1.2-3.4,0.4c-0.2-0.2-0.4-0.4-0.5-0.6l-4.1-6.2c-1.3-2-1-4.6,0.6-6.3c5.6-5.7,19.5-17.1,38.6-17.1c25.4,0,65.9,22.4,65.9,73.4C269.3,162.6,268.9,167.7,268.1,172.7z"/><linearGradient id="SVGID_00000105421223260904496680000016929980773654514348_" gradientUnits="userSpaceOnUse" x1="46.365" y1="172.7" x2="46.365" y2="173.8"><stop offset="0" style="stop-color:#A5C83B"/><stop offset="1" style="stop-color:#7A855B"/></linearGradient><path style="fill:url(#SVGID_00000105421223260904496680000016929980773654514348_);" d="M46.8,173.3l-0.6,0.5c-0.1-0.4-0.1-0.7-0.2-1.1L46.8,173.3z"/><linearGradient id="SVGID_00000038399409809818482240000009125235564746806452_" gradientUnits="userSpaceOnUse" x1="108.57" y1="120.0143" x2="108.57" y2="206.42"><stop offset="0" style="stop-color:#A5C83B"/><stop offset="1" style="stop-color:#7A855B"/></linearGradient><path style="fill:url(#SVGID_00000038399409809818482240000009125235564746806452_);" d="M140.8,206.4c-31.7-27.8-39-46.3-31.8-63s27.1-9.9,27.1-9.9c-17.1-17.7-31.5-14.4-39.5-9.9c-4.8,2.8-8.7,7-11,12c-6.5,13.8-0.6,27.1,9.4,38.4c-6.3,0.5-14.1,3.2-18.6,12.4c0,0,4.7-4.8,11-5.6s12.7-1.2,17.6,2.8l0,0C121.3,197.4,140.8,206.4,140.8,206.4z"/><linearGradient id="SVGID_00000000938592776843571570000007586581758788960440_" gradientUnits="userSpaceOnUse" x1="43.525" y1="77.33" x2="43.525" y2="107.3798"><stop offset="0" style="stop-color:#A5C83B"/><stop offset="1" style="stop-color:#7A855B"/></linearGradient><path style="fill:url(#SVGID_00000000938592776843571570000007586581758788960440_);" d="M60.9,92.8c-1.1-8.1-7.8-14.3-15.9-14.6l-20.4-0.8l4.8,16.8c2.5,8.7,11,14.3,20,13.1l13.1-1.8L60.9,92.8z"/><linearGradient id="SVGID_00000006704723509618804200000012149222940532783499_" gradientUnits="userSpaceOnUse" x1="30.255" y1="164.9232" x2="30.255" y2="183.5769"><stop offset="0" style="stop-color:#A5C83B"/><stop offset="1" style="stop-color:#7A855B"/></linearGradient><path style="fill:url(#SVGID_00000006704723509618804200000012149222940532783499_);" d="M46.8,173.3l-0.6,0.5l-7.9,6.8c-4.1,3.5-10,3.9-14.5,0.9l-10-6.6l10.5-7.7c4.2-3.1,10-3.1,14.2,0l7.5,5.4L46.8,173.3z"/><linearGradient id="SVGID_00000124146022073684160500000004266428499838212029_" gradientUnits="userSpaceOnUse" x1="267.73" y1="172.71" x2="267.73" y2="173.79"><stop offset="0" style="stop-color:#A5C83B"/><stop offset="1" style="stop-color:#7A855B"/></linearGradient><path style="fill:url(#SVGID_00000124146022073684160500000004266428499838212029_);" d="M268.1,172.7c0,0.4-0.1,0.7-0.2,1.1l-0.6-0.5L268.1,172.7z"/><linearGradient id="SVGID_00000090276938486123784560000018042171468831273381_" gradientUnits="userSpaceOnUse" x1="205.515" y1="119.9843" x2="205.515" y2="206.42"><stop offset="0" style="stop-color:#A5C83B"/><stop offset="1" style="stop-color:#7A855B"/></linearGradient><path style="fill:url(#SVGID_00000090276938486123784560000018042171468831273381_);" d="M173.4,206.4c31.7-27.8,39-46.3,31.8-63s-27.2-10-27.2-10c17.1-17.7,31.5-14.4,39.5-9.9c4.8,2.8,8.7,7,11,12c6.5,13.8,0.6,27.1-9.4,38.4c6.3,0.5,14.1,3.2,18.6,12.4c0,0-4.6-4.8-11-5.6s-12.7-1.2-17.6,2.8l0,0C192.8,197.4,173.4,206.4,173.4,206.4z"/><linearGradient id="SVGID_00000147209450009484962140000001972324381568078248_" gradientUnits="userSpaceOnUse" x1="270.575" y1="77.33" x2="270.575" y2="107.3776"><stop offset="0" style="stop-color:#A5C83B"/><stop offset="1" style="stop-color:#7A855B"/></linearGradient><path style="fill:url(#SVGID_00000147209450009484962140000001972324381568078248_);" d="M253.2,92.8c1.1-8.1,7.8-14.2,15.9-14.6l20.4-0.8l-4.8,16.8c-2.5,8.7-11,14.3-20,13.1l-13.1-1.8L253.2,92.8z"/><linearGradient id="SVGID_00000110432029292009765720000016966497802193804708_" gradientUnits="userSpaceOnUse" x1="283.8" y1="164.9195" x2="283.8" y2="183.6031"><stop offset="0" style="stop-color:#A5C83B"/><stop offset="1" style="stop-color:#7A855B"/></linearGradient><path style="fill:url(#SVGID_00000110432029292009765720000016966497802193804708_);" d="M300.3,175l-10,6.6c-4.5,3-10.4,2.6-14.5-0.9l-7.9-6.8l-0.6-0.5l0.8-0.6l7.5-5.5c4.2-3.1,10-3.1,14.2,0L300.3,175z"/><rect class="st10" width="314.1" height="314.1"/></g></svg>