<?xml version="1.0" encoding="utf-8"?><svg version="1.1" id="Electro" xmlns="http://www.w3.org/2000/svg" xmlns:xlink="http://www.w3.org/1999/xlink" x="0px" y="0px" viewBox="0 0 314.1 314.1" style="enable-background:new 0 0 314.1 314.1;" xml:space="preserve"><style type="text/css">.st0{fill:url(#SVGID_1_)}.st1{fill:none}</style><g id="Livello"><linearGradient id="SVGID_1_" gradientUnits="userSpaceOnUse" x1="157.0361" y1="29.71" x2="157.0361" y2="284.4217"><stop offset="0" style="stop-color:#CFB0D6"/><stop offset="1" style="stop-color:#5B6282"/></linearGradient><path class="st0" d="M270,217.4L270,217.4c-30.9,57.4-100.2,82.2-160.5,57.5c0.8,0,43.6,2.9,57.8-7.9c0,0-69.5-8.2-68.5-83.5c0,0,8.5,14.6,23.8,14.6s25.9-18.4,25.9-36.4s-21.5-41.2-45.7-41.2s-64.3,20.5-55.1,100.5c-32.2-55.3-18.3-125.9,32.4-165C79.3,57.5,55.8,92.5,58,110c0,0,42-56,106.6-17.3c0,0-17,0-24.6,13.3s2.9,31.6,18.5,40.7s46.4,2.1,58.6-18.8s14.6-65.9-59.2-98.2h0.1c62.4,0,115.6,45.3,125.7,106.9c-0.6-1.2-20.4-38.7-36.9-45.1c0.4,0.9,28.9,63.8-35.3,102c0,0,8-14.9,0-28s-29.2-12.4-44.6-3s-23.9,39.9-11.3,60.5S206.6,267,270,217.4z"/><rect class="st1" width="314.1" height="314.1"/></g></svg>