<?xml version="1.0" encoding="utf-8"?><svg version="1.1" id="Anemo" xmlns="http://www.w3.org/2000/svg" xmlns:xlink="http://www.w3.org/1999/xlink" x="0px" y="0px" viewBox="0 0 314.1 314.1" style="enable-background:new 0 0 314.1 314.1;" xml:space="preserve"><style type="text/css">.st0{fill:url(#SVGID_1_)}.st1{fill:url(#SVGID_00000120549907209460737300000004541531884169193651_)}.st2{fill:url(#SVGID_00000176758623878152350640000013135953700792839576_)}.st3{fill:url(#SVGID_00000088839708929962412750000012749280345688952721_)}.st4{fill:url(#SVGID_00000096756714358397693270000003367035101292656783_)}.st5{fill:none}</style><g id="Livello"><linearGradient id="SVGID_1_" gradientUnits="userSpaceOnUse" x1="108.815" y1="24.57" x2="108.815" y2="148.75"><stop offset="0" style="stop-color:#A5D6C7"/><stop offset="1" style="stop-color:#629988"/></linearGradient><path class="st0" d="M145.2,148.8c0,0-68.4-44.6-32.4-124.2c0,0-40.5,19-40.5,53.5C72.4,126.2,114.1,140.5,145.2,148.8z"/><linearGradient id="SVGID_00000031908023104580719060000011709420205921418919_" gradientUnits="userSpaceOnUse" x1="82.9025" y1="117.18" x2="82.9025" y2="216.9743"><stop offset="0" style="stop-color:#A5D6C7"/><stop offset="1" style="stop-color:#629988"/></linearGradient><path style="fill:url(#SVGID_00000031908023104580719060000011709420205921418919_);" d="M136.4,189.4c0,15.9-23.5,16.2-23.5,16.2c1.4,18,29,15.1,28.8-12.1s-17.3-28.6-57-30.1s-56.9-46.2-56.9-46.2s-15.4,46.8,17.1,65.5s66.2-7.4,71.9-8S136.4,173.5,136.4,189.4z"/><linearGradient id="SVGID_00000054987515260565176430000005471508440336866696_" gradientUnits="userSpaceOnUse" x1="205.275" y1="24.57" x2="205.275" y2="148.75"><stop offset="0" style="stop-color:#A5D6C7"/><stop offset="1" style="stop-color:#629988"/></linearGradient><path style="fill:url(#SVGID_00000054987515260565176430000005471508440336866696_);" d="M241.7,78.1c0-34.4-40.5-53.5-40.5-53.5c36,79.6-32.3,124.2-32.3,124.2C200,140.5,241.7,126.2,241.7,78.1z"/><linearGradient id="SVGID_00000050641972922830290250000016313132958719055781_" gradientUnits="userSpaceOnUse" x1="231.1658" y1="117.18" x2="231.1658" y2="216.9774"><stop offset="0" style="stop-color:#A5D6C7"/><stop offset="1" style="stop-color:#629988"/></linearGradient><path style="fill:url(#SVGID_00000050641972922830290250000016313132958719055781_);" d="M286.3,117.2c0,0-17.2,44.6-56.9,46.2s-56.8,2.9-57,30.1s27.4,30.1,28.8,12.1c0,0-23.5-0.4-23.5-16.2s13.9-15.3,19.6-14.7s39.3,26.8,71.9,8S286.3,117.2,286.3,117.2z"/><linearGradient id="SVGID_00000012455410484481992050000008251904819580980624_" gradientUnits="userSpaceOnUse" x1="157.105" y1="62.2" x2="157.105" y2="289.51"><stop offset="0" style="stop-color:#A5D6C7"/><stop offset="1" style="stop-color:#629988"/></linearGradient><path style="fill:url(#SVGID_00000012455410484481992050000008251904819580980624_);" d="M181.2,224.5c-8.8,0-19.6-10.3-19.6-27.2l0.1-4.2c0.1-7.5,3.4-14.6,9-19.6c9.9-8.8,26.6-17.6,46.8-19c38.7-2.7,69.1-31.7,40.5-92.3c0,0,1.4,49.5-34.1,71.4s-56.2,25.6-66.8,48.5l0,0c-10.6-22.9-31.4-26.6-66.8-48.5s-34-71.4-34-71.4c-28.6,60.7,1.8,89.6,40.5,92.3c20.1,1.4,36.8,10.2,46.7,19c5.6,5,8.9,12.1,9,19.6l0.1,4.2c0,16.9-10.7,27.2-19.6,27.2c-3.4,0-6.8-0.5-10-1.6c-3.4-1.2-7.3-0.9-10.5,0.8l-2.2,1.2c34.2,26.1,46.7,64.7,46.7,64.7s12.6-38.5,46.9-64.6l-2.2-1.2c-3.2-1.7-7-2-10.5-0.8C188,224,184.6,224.6,181.2,224.5z M157,268.4c0-5.3-12.3-21.9-12.3-21.9c5.1-1.3,9.5-4.4,12.3-8.7c2.9,4.4,7.3,7.5,12.3,8.7C169.3,246.4,157,263,157,268.4z M162.8,234c-2.1-1.5-4.1-3.3-5.8-5.2c-1.7,1.9-3.7,3.7-5.8,5.2c-2.2,1.5-4.8,2.3-7.4,2.2h-6.7c0,0,19.2-9.2,19.9-19.6h0.1c0.6,10.4,19.9,19.6,19.9,19.6h-6.7C167.6,236.3,165,235.5,162.8,234z"/><rect class="st5" width="314.1" height="314.1"/></g></svg>