<svg version="1.1" id="prefix__Layer_1" xmlns="http://www.w3.org/2000/svg" x="0" y="0" viewBox="0 0 396 243"
	xml:space="preserve">
	<style>
		.prefix__st0 {
			fill: #bfab80
		}
	</style>
	<g id="prefix__Layer_2_00000096761290447673722840000016564728802483303600_">
		<path class="prefix__st0"
			d="M373.1 8c.9 7.8 7.1 14 14.9 14.9v197.2c-7.8.9-14 7.1-14.9 14.9H22.9c-.9-7.8-7.1-14-14.9-14.9V22.9C15.8 22 21.9 15.8 22.9 8h350.2m1.9-2H21c0 8.3-6.7 15-15 15v201c8.3 0 15 6.7 15 15h354c0-8.3 6.7-15 15-15V21c-8.3 0-15-6.7-15-15z"
			id="prefix__Layer_1-2" />
	</g>
	<path class="prefix__st0"
		d="M12 6c-4.3-.2-5.5-1.7-6-6-.2 4.3-1.5 5.7-6 6 4.4.2 5.7 1.7 6 6 .5-4.2 1.8-5.5 6-6zM396 237c-4.3-.2-5.5-1.7-6-6-.2 4.3-1.5 5.7-6 6 4.4.2 5.7 1.7 6 6 .5-4.2 1.8-5.5 6-6zM396 6c-4.3-.2-5.5-1.7-6-6-.2 4.3-1.5 5.7-6 6 4.4.2 5.7 1.7 6 6 .5-4.2 1.8-5.5 6-6zM12 237c-4.3-.2-5.5-1.7-6-6-.2 4.3-1.5 5.7-6 6 4.4.2 5.7 1.7 6 6 .5-4.2 1.8-5.5 6-6z" />
</svg>